<?xml version="1.0" encoding="UTF-8" standalone="no"?>
<svg
   fill="none"
   viewBox="0 0 36 36"
   version="1.1"
   id="svg1129"
   sodipodi:docname="favicon.svg"
   inkscape:version="1.2.1 (9c6d41e410, 2022-07-14)"
   inkscape:export-filename="favicon.png"
   inkscape:export-xdpi="96"
   inkscape:export-ydpi="96"
   xmlns:inkscape="http://www.inkscape.org/namespaces/inkscape"
   xmlns:sodipodi="http://sodipodi.sourceforge.net/DTD/sodipodi-0.dtd"
   xmlns="http://www.w3.org/2000/svg"
   xmlns:svg="http://www.w3.org/2000/svg">
  <sodipodi:namedview
     id="namedview1131"
     pagecolor="#878787"
     bordercolor="#000000"
     borderopacity="0.25"
     inkscape:showpageshadow="2"
     inkscape:pageopacity="0"
     inkscape:pagecheckerboard="0"
     inkscape:deskcolor="#d1d1d1"
     showgrid="false"
     inkscape:zoom="11.597222"
     inkscape:cx="11.597605"
     inkscape:cy="14.701796"
     inkscape:window-width="1920"
     inkscape:window-height="1051"
     inkscape:window-x="-9"
     inkscape:window-y="-9"
     inkscape:window-maximized="1"
     inkscape:current-layer="svg1129" />
  <defs
     id="defs1125">
    <linearGradient
       id="gradient"
       x1="16"
       x2="16"
       y1="32"
       y2="24"
       gradientUnits="userSpaceOnUse">
      <stop
         stop-color="#000"
         id="stop1120" />
      <stop
         offset="1"
         stop-color="#000"
         stop-opacity="0"
         id="stop1122" />
    </linearGradient>
    <pattern
       id="EMFhbasepattern"
       patternUnits="userSpaceOnUse"
       width="6"
       height="6"
       x="0"
       y="0" />
  </defs>
  <style
     id="style1127">
    @media (prefers-color-scheme:dark){:root{filter:invert(100%)}}
  </style>
  <rect
     style="fill:#ffffff;stroke:none;stroke-width:3.96647"
     id="rect4612"
     width="34.577244"
     height="34.663475"
     x="0.7113781"
     y="0.66826248"
     ry="4.1786103" />
  <g
     id="g4542"
     transform="matrix(0.06785723,0,0,0.06785723,16.936689,16.667758)">
    <path
       style="fill:#fdfdfd;stroke-width:0.801231"
       d="m -230.70876,19.63301 v -143.821 H 15.669825 262.04841 v 143.821 143.821 H 15.669825 -230.70876 Z m 119.93869,138.42794 c -0.20314,-0.77958 -0.38272,-0.33574 -0.39905,0.98629 -0.0163,1.32203 0.14988,1.95986 0.36936,1.4174 0.21948,-0.54246 0.23283,-1.62412 0.0297,-2.40369 z m 154.00538,-5.88078 c 7.604044,-3.35534 13.768829,-11.92638 16.957072,-23.57579 2.198731,-8.03387 2.295976,-18.49476 0.301712,-32.453791 -1.374656,-9.621969 -2.088337,-31.385155 -1.062849,-32.410643 0.27221,-0.27221 6.041074,0.752268 12.819698,2.276626 34.918957,7.852467 58.228317,10.694722 81.045027,9.882322 17.38818,-0.619111 28.02979,-4.007222 36.75042,-11.7007 5.13835,-4.533141 8.17616,-9.587532 13.44726,-22.373924 2.49171,-6.044288 5.75976,-12.788876 7.26232,-14.987975 3.06395,-4.484267 10.44139,-11.994583 23.99143,-24.4235222 5.03526,-4.6186572 10.69347,-10.4873872 12.57379,-13.0416318 9.77027,-13.271962 13.41748,-30.105421 9.06744,-41.850126 -2.69471,-7.275466 -11.49752,-15.678698 -21.58769,-20.607766 -16.17782,-7.902897 -51.11751,-18.237917 -83.32243,-24.646443 C 98.243403,-108.32656 33.876834,-110.76142 -6.8946556,-103.72414 -35.050007,-98.864445 -62.296161,-88.333965 -74.896523,-77.441816 l -3.113713,2.691594 -9.94585,-3.507618 c -27.353984,-9.646973 -70.601084,-20.523718 -90.046404,-22.64688 -18.62408,-2.03348 -29.3178,3.081252 -33.2974,15.925939 -2.02131,6.524021 -1.99435,37.078954 0.0403,45.721298 9.94044,42.2221359 56.66743,93.847802 126.374873,139.623533 20.50994,13.46855 34.00909,21.17645 56.486798,32.2535 41.362349,20.38343 58.909632,25.175 71.633199,19.56062 z M 130.24588,61.954282 C 122.3042,61.272298 106.24531,59.098013 98.196636,57.614982 88.382467,55.806644 64.761155,50.563106 64.285271,50.087215 64.117149,49.919093 64.749024,47.469424 65.689429,44.643498 69.720535,32.530028 69.456465,25.52141 64.596165,15.626854 59.334031,4.9142487 48.49907,-5.6987075 28.088908,-20.132399 15.859677,-28.78068 12.258711,-31.067626 -1.9666912,-39.22049 -18.252043,-48.553944 -38.136614,-58.570792 -52.211513,-64.531302 l -10.993934,-4.655765 2.881925,-1.95832 c 4.901419,-3.330597 18.715782,-9.583861 27.604761,-12.495672 54.46199,-17.840431 149.721101,-13.057435 231.284011,11.612852 24.50573,7.412231 35.7064,12.64889 41.70329,19.497569 1.46171,1.669343 2.99407,3.919971 3.40523,5.001396 1.36646,3.594059 0.84337,11.139822 -1.15362,16.641468 -3.24541,8.941019 -6.70761,13.713481 -16.52714,22.7818955 C 201.42208,14.58555 197.99096,18.961122 190.6814,36.925775 c -5.0764,12.476211 -8.30549,16.931345 -14.87698,20.525572 -7.24955,3.965093 -13.64445,5.040433 -29.1333,4.898928 -7.27117,-0.06642 -14.66253,-0.244624 -16.42524,-0.395993 z"
       id="path4558" />
    <path
       style="fill:#55c0e1;stroke-width:0.801231"
       d="m 61.926503,113.77768 c 0,-1.54237 0.164893,-2.17334 0.366427,-1.40216 0.201526,0.77119 0.201526,2.03313 0,2.80431 -0.201534,0.77119 -0.366427,0.14022 -0.366427,-1.40215 z M 58.59895,82.863508 c 0.03846,-0.933394 0.228303,-1.123246 0.484072,-0.48408 0.231451,0.578385 0.202992,1.269455 -0.06322,1.535696 -0.266242,0.266241 -0.455613,-0.20699 -0.420823,-1.051616 z M 44.311428,58.056509 C 7.6893622,47.345955 -32.52024,30.196682 -69.462293,9.532345 -89.529296,-1.6925596 -98.630088,-9.024442 -103.38833,-17.799502 c -2.52955,-4.664944 -2.72898,-5.559727 -2.72898,-12.243822 0,-6.514523 0.25238,-7.727002 2.61283,-12.552136 3.25373,-6.65116 11.7547,-17.633393 19.686777,-25.432949 l 6.036692,-5.935835 6.062932,2.211276 c 3.33462,1.216202 6.06294,2.362655 6.06294,2.547672 0,0.185017 -4.066969,4.384947 -9.037703,9.333177 -14.375137,14.310041 -20.324759,23.753948 -19.615445,31.135851 0.898853,9.354615 9.600937,16.370395 42.042226,33.8952367 31.228177,16.8695143 74.089093,34.3167883 105.609752,42.9902683 5.650306,1.554781 9.150636,2.902877 8.943462,3.444437 -0.187216,0.4894 -0.993454,2.963001 -1.791633,5.496894 -0.967623,3.071785 -1.869745,4.595935 -2.707072,4.573628 -0.690709,-0.01843 -6.755364,-1.641858 -13.47702,-3.607687 z m -199.379968,-12.583793 -1.52634,-1.80277 1.80277,1.526337 c 0.99153,0.839482 1.80277,1.650729 1.80277,1.802771 0,0.641185 -0.64482,0.167817 -2.0792,-1.526338 z m -11.64393,-11.617852 c -0.99663,-1.270801 -0.96829,-1.299141 0.30251,-0.302513 0.77119,0.604809 1.40216,1.235779 1.40216,1.402155 0,0.659445 -0.65796,0.235009 -1.70467,-1.099642 z M 68.306667,30.049016 c 0.01635,-1.322032 0.195901,-1.765866 0.399045,-0.986292 0.203144,0.779574 0.189787,1.861236 -0.02973,2.403694 -0.219481,0.542457 -0.385688,-0.09537 -0.369359,-1.417402 z M 52.125843,-0.39776994 C 50.179629,-2.3808172 48.767547,-4.0033103 48.987885,-4.0033103 c 0.220339,0 1.992975,1.6224931 3.939189,3.60554036 1.946215,1.98304724 3.358297,3.60554034 3.137958,3.60554034 -0.220338,0 -1.992974,-1.6224931 -3.939189,-3.60554034 z M -206.27121,-94.542436 c 0.79762,-0.881354 1.63049,-1.602462 1.85082,-1.602462 0.22034,0 -0.25197,0.721108 -1.04959,1.602462 -0.79761,0.881355 -1.63048,1.602463 -1.85082,1.602463 -0.22034,0 0.25198,-0.721108 1.04959,-1.602463 z"
       id="path4556" />
    <path
       style="fill:#f08f65;stroke-width:0.801231"
       d="m 140.46158,75.523237 c 3.85592,-0.146874 10.16562,-0.146874 14.02155,0 3.85592,0.146881 0.70107,0.26705 -7.01078,0.26705 -7.71185,0 -10.8667,-0.120169 -7.01077,-0.26705 z m -14.42216,-0.778541 c 1.21186,-0.183586 3.19491,-0.183586 4.40677,0 1.21186,0.183578 0.22034,0.333785 -2.20339,0.333785 -2.42372,0 -3.41524,-0.150207 -2.20338,-0.333785 z m 35.92186,0.275928 c 0.18362,-0.163875 2.13662,-0.506169 4.34001,-0.760648 2.70168,-0.31204 3.35392,-0.241027 2.00307,0.218087 -2.00179,0.680349 -6.974,1.105651 -6.34308,0.542561 z m -44.33479,-1.06873 c 0.99153,-0.190981 2.61402,-0.190981 3.60554,0 0.99153,0.190974 0.18028,0.34723 -1.80277,0.34723 -1.98305,0 -2.79429,-0.156256 -1.80277,-0.34723 z m -6.40051,-0.802457 c 0.99666,-0.191646 2.43888,-0.184371 3.20493,0.01618 0.76605,0.20054 -0.0494,0.357349 -1.81211,0.348455 -1.76271,-0.0089 -2.38948,-0.172977 -1.39282,-0.364624 z m 60.13308,0.01931 c 0.57838,-0.231452 1.26945,-0.202992 1.53569,0.06322 0.26624,0.266241 -0.20699,0.455612 -1.05161,0.420823 -0.9334,-0.03846 -1.12325,-0.228303 -0.48408,-0.484072 z m -65.33517,-0.809148 c 0.77957,-0.203144 1.86123,-0.189787 2.40369,0.02973 0.54246,0.219481 -0.0954,0.385689 -1.4174,0.36936 -1.32203,-0.01635 -1.76587,-0.195901 -0.98629,-0.399046 z m -8.628486,-1.047177 c -3.331992,-0.847847 -0.05256,-0.88548 4.006156,-0.04599 2.69464,0.557368 2.82221,0.66249 0.80123,0.660262 -1.32203,-0.0016 -3.485354,-0.277899 -4.807386,-0.614296 z m 83.328046,-1.735178 c 10.70664,-5.477241 14.85564,-10.74004 22.00912,-27.917459 6.76868,-16.253399 8.97982,-19.019354 31.95397,-39.9717098 9.6646,-8.81408 13.61588,-13.8889502 17.76483,-22.8163882 3.90332,-8.398922 5.0383,-13.785303 4.67041,-22.164675 -0.36194,-8.243966 -2.152,-12.345322 -8.4963,-19.466594 l -4.40246,-4.941609 5.21654,5.319975 c 6.54126,6.670976 8.7292,11.874309 8.7292,20.759708 0,10.435251 -3.8847,21.534267 -10.84757,30.992649 -1.88032,2.5542446 -7.53853,8.4229746 -12.57379,13.0416318 -13.55004,12.4289392 -20.92748,19.9392552 -23.99143,24.4235222 -1.50256,2.199099 -4.77061,8.943687 -7.26232,14.987975 -5.2711,12.786392 -8.30891,17.840783 -13.44726,22.373924 -3.3567,2.961335 -11.95033,7.973068 -13.50656,7.87692 -0.34308,-0.02115 1.53955,-1.14524 4.18362,-2.49787 z m -88.736356,0.403308 c 0.550846,-0.22227 1.452232,-0.22227 2.003078,0 0.550846,0.222269 0.100154,0.404133 -1.001539,0.404133 -1.101693,0 -1.552385,-0.181864 -1.001539,-0.404133 z M 87.980938,69.17932 c 0.550847,-0.222269 1.452232,-0.222269 2.003078,0 0.550847,0.22227 0.100154,0.404133 -1.001539,0.404133 -1.101693,0 -1.552385,-0.181863 -1.001539,-0.404133 z m -4.006156,-0.801231 c 0.550847,-0.222269 1.452232,-0.222269 2.003078,0 0.550847,0.22227 0.100154,0.404133 -1.001539,0.404133 -1.101693,0 -1.552385,-0.181863 -1.001539,-0.404133 z m -6.209541,-1.071823 c -1.586101,-0.507956 -1.669502,-0.641497 -0.400616,-0.641497 0.881354,0 2.503848,0.288675 3.60554,0.641497 1.586102,0.507957 1.669502,0.641498 0.400616,0.641498 -0.881354,0 -2.503847,-0.288676 -3.60554,-0.641498 z M 70.55416,65.703804 c -1.586101,-0.507957 -1.669501,-0.641498 -0.400615,-0.641498 0.881354,0 2.503847,0.288676 3.60554,0.641498 1.586101,0.507956 1.669501,0.641498 0.400615,0.641498 -0.881354,0 -2.503847,-0.288676 -3.60554,-0.641498 z m -4.156387,-1.34856 c 0.578385,-0.231452 1.269455,-0.202992 1.535696,0.06322 0.266241,0.266241 -0.20699,0.455612 -1.051616,0.420822 -0.933394,-0.03846 -1.123246,-0.228302 -0.48408,-0.484071 z m -5.658695,-0.806215 c -0.771185,-0.201526 -1.402154,-0.721813 -1.402154,-1.156185 0,-0.434371 0.388797,-0.549476 0.863999,-0.255785 0.475203,0.293691 1.82728,0.824812 3.004617,1.180262 1.505954,0.454666 1.665504,0.63915 0.538155,0.622212 -0.881354,-0.01322 -2.233432,-0.188971 -3.004617,-0.390504 z m 81.289912,-0.84227 c 2.95529,-0.153725 8.00305,-0.15475 11.21723,-0.0024 3.21419,0.152474 0.79623,0.278243 -5.37325,0.279493 -6.16948,0.0016 -8.79927,-0.123501 -5.84398,-0.277218 z M 127.6529,61.923932 c 1.21792,-0.184171 3.02069,-0.179244 4.00615,0.0109 0.98547,0.190181 -0.0111,0.34086 -2.2144,0.334851 -2.20338,-0.0064 -3.00967,-0.161624 -1.79175,-0.345787 z m 34.04131,0.04431 c 0.55084,-0.22227 1.45223,-0.22227 2.00307,0 0.55085,0.222269 0.10016,0.404133 -1.00154,0.404133 -1.10169,0 -1.55238,-0.181864 -1.00153,-0.404133 z m -42.06464,-0.822905 c 0.77118,-0.201525 2.03312,-0.201525 2.80431,0 0.77118,0.201534 0.14021,0.366427 -1.40216,0.366427 -1.54237,0 -2.17334,-0.164893 -1.40215,-0.366427 z M 60.201412,59.627803 c 0.03846,-0.933394 0.228303,-1.123246 0.484072,-0.48408 0.231452,0.578385 0.202992,1.269447 -0.06322,1.535696 -0.266241,0.266241 -0.455612,-0.20699 -0.420823,-1.051616 z m 53.018308,0.716301 c 0.77119,-0.201526 2.03312,-0.201526 2.80431,0 0.77118,0.201534 0.14021,0.366427 -1.40216,0.366427 -1.54237,0 -2.17333,-0.164893 -1.40215,-0.366427 z m -5.59337,-0.804164 c 0.77957,-0.203144 1.86124,-0.189787 2.40369,0.02973 0.54246,0.219481 -0.0954,0.385689 -1.4174,0.36936 -1.32203,-0.01635 -1.76586,-0.195902 -0.98629,-0.399046 z m 68.28971,-2.126868 c 6.45693,-3.576744 9.73581,-8.126287 14.76534,-20.487297 7.30956,-17.964653 10.74068,-22.340225 35.31161,-45.0316535 9.81953,-9.0684145 13.28173,-13.8408765 16.52714,-22.7818955 2.25448,-6.211024 2.51704,-13.640153 0.62313,-17.631281 -1.2261,-2.583806 -5.712,-7.183555 -9.93919,-10.191428 l -2.00308,-1.425299 1.95344,0.933201 c 3.05722,1.4605 9.39117,7.735584 10.79565,10.695321 1.59033,3.35136 1.6321,10.811585 0.089,15.897264 -3.19768,10.538898 -5.90715,13.840483 -31.36666,38.22146 -12.80274,12.260384 -14.16265,14.415039 -23.84528,37.780919 -1.21503,2.932082 -3.48804,6.82516 -5.05114,8.651286 -2.61419,3.054085 -9.97681,8.039242 -11.86615,8.034442 -0.44067,-8.01e-4 1.3621,-1.20038 4.00616,-2.665039 z m -73.51296,1.350243 c 0.55085,-0.22227 1.45223,-0.22227 2.00308,0 0.55084,0.222269 0.10015,0.404133 -1.00154,0.404133 -1.10169,0 -1.55239,-0.181864 -1.00154,-0.404133 z m -4.391525,-0.825837 c 0.779574,-0.203144 1.861236,-0.189788 2.403695,0.02973 0.54246,0.219481 -0.0954,0.385688 -1.417403,0.369359 -1.322032,-0.01635 -1.765866,-0.195901 -0.986292,-0.399045 z m -3.570711,-0.793315 c 0.578385,-0.231452 1.269455,-0.202992 1.535696,0.06322 0.266241,0.266241 -0.20699,0.455612 -1.051616,0.420823 -0.933394,-0.03846 -1.123246,-0.228303 -0.48408,-0.484072 z M 89.5834,56.359621 c 0.550847,-0.222269 1.452232,-0.222269 2.003078,0 0.550847,0.22227 0.100154,0.404133 -1.001539,0.404133 -1.101692,0 -1.552385,-0.181863 -1.001539,-0.404133 z M 86.428553,55.5417 c 0.578385,-0.231451 1.269454,-0.202991 1.535696,0.06322 0.266241,0.266241 -0.206991,0.455612 -1.051616,0.420822 -0.933395,-0.03846 -1.123246,-0.228303 -0.48408,-0.484072 z m -4.006156,-0.801231 c 0.578385,-0.231451 1.269455,-0.202992 1.535696,0.06322 0.266241,0.266242 -0.20699,0.455613 -1.051616,0.420823 -0.933395,-0.03846 -1.123246,-0.228303 -0.48408,-0.484072 z m -4.056233,-0.784541 c 0.550847,-0.22227 1.452232,-0.22227 2.003078,0 0.550846,0.222269 0.100154,0.404133 -1.001539,0.404133 -1.101693,0 -1.552385,-0.181864 -1.001539,-0.404133 z m -3.154848,-0.817921 c 0.578385,-0.231452 1.269455,-0.202992 1.535696,0.06322 0.266241,0.266241 -0.20699,0.455612 -1.051616,0.420823 -0.933394,-0.03846 -1.123246,-0.228303 -0.48408,-0.484072 z M 62.617373,52.483489 c -0.107125,-1.683499 1.144903,-2.578218 2.728785,-1.950028 1.544677,0.612637 1.539862,0.637579 -0.133542,0.691863 -0.954795,0.03101 -1.917859,0.507011 -2.140128,1.057857 -0.22227,0.550847 -0.427072,0.640985 -0.455115,0.200308 z m 6.334325,-0.400615 c -1.586101,-0.507957 -1.669501,-0.641498 -0.400616,-0.641498 0.881355,0 2.503848,0.288675 3.605541,0.641498 1.586101,0.507956 1.669501,0.641497 0.400615,0.641497 -0.881354,0 -2.503847,-0.288675 -3.60554,-0.641497 z M 229.19793,-60.890725 c -0.72214,-0.466685 -0.82096,-0.78159 -0.24759,-0.788962 0.52483,-0.0067 1.17708,0.348284 1.44944,0.788962 0.61478,0.994748 0.33741,0.994748 -1.20185,0 z m -7.21108,-3.204925 c -0.66101,-0.427181 -0.84129,-0.776693 -0.40061,-0.776693 0.44067,0 1.34206,0.349512 2.00307,0.776693 0.66102,0.427181 0.8413,0.776693 0.40062,0.776693 -0.44068,0 -1.34206,-0.349512 -2.00308,-0.776693 z m 19.22955,-4.878978 c -1.72567,-1.41151 -1.75958,-1.519412 -0.24493,-0.779106 0.96698,0.472622 1.97978,1.217929 2.25067,1.656236 0.72317,1.170117 0.23749,0.957722 -2.00574,-0.87713 z m -306.003541,-0.189886 c 1.361524,-1.066377 6.343083,-3.795292 6.343083,-3.47476 0,0.518745 -5.198845,3.736237 -6.037037,3.736237 -0.351941,0 -0.489656,-0.117665 -0.306046,-0.261477 z m 265.541371,-2.142217 c -1.01007,-0.434039 -1.15817,-0.688601 -0.40062,-0.688601 0.66102,0 1.92295,0.30987 2.80431,0.688601 1.01006,0.434039 1.15816,0.688601 0.40061,0.688601 -0.66101,0 -1.92295,-0.30987 -2.8043,-0.688601 z m 34.05232,-1.201847 c -1.98305,-1.061867 -3.32076,-1.946959 -2.9727,-1.966873 0.85087,-0.04868 6.97886,3.099777 6.97886,3.58562 0,0.530807 0.0332,0.544238 -4.00616,-1.618747 z m -312.041635,-1.941747 c -0.418947,-0.677871 4.729997,-5.345007 7.57379,-6.865084 1.673748,-0.894659 0.330236,0.349031 -3.809662,3.526605 -1.874969,1.439134 -3.205766,2.945506 -2.957328,3.347493 0.248446,0.401987 0.271433,0.730886 0.05112,0.730886 -0.220339,0 -0.606388,-0.332955 -0.857895,-0.7399 z m 21.19472,0.344077 c 0,-0.539316 8.110254,-4.580697 8.470208,-4.220747 0.164204,0.164206 -1.674421,1.266192 -4.085831,2.448858 -2.411409,1.182665 -4.384377,1.980015 -4.384377,1.771889 z m 248.231435,-0.151509 c 0.57838,-0.231452 1.26945,-0.202987 1.53569,0.06326 0.26624,0.266243 -0.20699,0.455613 -1.05161,0.420823 -0.9334,-0.03844 -1.12325,-0.228304 -0.48408,-0.484077 z m -5.60862,-1.602462 c 0.57838,-0.231453 1.26945,-0.202987 1.53569,0.06326 0.26625,0.266243 -0.20699,0.455613 -1.05161,0.420823 -0.9334,-0.03844 -1.12325,-0.228304 -0.48408,-0.484078 z m 36.20563,-1.856362 c -0.66101,-0.427181 -0.84129,-0.776692 -0.40061,-0.776692 0.44067,0 1.34206,0.349511 2.00307,0.776692 0.66102,0.427182 0.8413,0.776693 0.40062,0.776693 -0.44068,0 -1.34206,-0.349511 -2.00308,-0.776693 z m -45.01917,-0.547332 c 0.57838,-0.231452 1.26945,-0.202987 1.53569,0.06326 0.26624,0.266243 -0.20699,0.455613 -1.05161,0.420823 -0.9334,-0.03844 -1.12325,-0.228304 -0.48408,-0.484077 z m -221.790807,-1.856361 c 0.661015,-0.427181 1.562401,-0.776693 2.003078,-0.776693 0.440677,0 0.2604,0.349512 -0.400616,0.776693 -0.661016,0.427181 -1.562401,0.776693 -2.003078,0.776693 -0.440677,0 -0.2604,-0.349512 0.400616,-0.776693 z m 215.380957,0.253899 c 0.57838,-0.231453 1.26945,-0.202987 1.53569,0.06326 0.26624,0.266243 -0.20699,0.455613 -1.05161,0.420823 -0.9334,-0.03844 -1.12325,-0.228304 -0.48408,-0.484078 z m -211.374801,-1.856362 c 0.661015,-0.427181 1.5624,-0.776692 2.003078,-0.776692 0.440677,0 0.2604,0.349511 -0.400616,0.776692 -0.661016,0.427182 -1.562401,0.776693 -2.003078,0.776693 -0.440677,0 -0.2604,-0.349511 0.400616,-0.776693 z m 204.163721,0.253899 c 0.57838,-0.231452 1.26945,-0.202987 1.53569,0.06326 0.26624,0.266242 -0.20699,0.455613 -1.05161,0.420822 -0.9334,-0.03844 -1.12325,-0.228303 -0.48408,-0.484077 z m -232.206812,-0.598133 c 0,-0.220339 0.721108,-0.786542 1.602462,-1.258228 0.881354,-0.471686 1.602462,-0.677335 1.602462,-0.456997 0,0.220339 -0.721108,0.786542 -1.602462,1.258228 -0.881354,0.471687 -1.602462,0.677335 -1.602462,0.456997 z m 229.001882,-0.203098 c 0.57839,-0.231452 1.26946,-0.202987 1.5357,0.06326 0.26624,0.266243 -0.20699,0.455613 -1.05162,0.420823 -0.93339,-0.03844 -1.12324,-0.228304 -0.48408,-0.484077 z M 156.9369,-83.0713 c 0.57838,-0.231452 1.26945,-0.202987 1.53569,0.06326 0.26624,0.266243 -0.20699,0.455613 -1.05161,0.420823 -0.9334,-0.03844 -1.12325,-0.228304 -0.48408,-0.484078 z m -4.05624,-0.784539 c 0.55085,-0.222271 1.45223,-0.222271 2.00308,0 0.55085,0.222272 0.10015,0.40413 -1.00154,0.40413 -1.10169,0 -1.55238,-0.181858 -1.00154,-0.40413 z m -216.933336,-0.630055 c 0,-0.220339 1.081662,-0.959965 2.403693,-1.643614 1.322031,-0.683649 2.403694,-1.062721 2.403694,-0.842383 0,0.220339 -1.081663,0.959965 -2.403694,1.643614 -1.322031,0.683649 -2.403693,1.062721 -2.403693,0.842383 z M 148.87451,-84.65707 c 0.55084,-0.222271 1.45223,-0.222271 2.00308,0 0.55084,0.222272 0.10015,0.404129 -1.00154,0.404129 -1.1017,0 -1.55239,-0.181857 -1.00154,-0.404129 z m -177.823246,-0.817924 c 0.578385,-0.231452 1.269447,-0.202987 1.535696,0.06326 0.266241,0.266242 -0.20699,0.455613 -1.051616,0.420822 -0.933394,-0.03844 -1.123246,-0.228303 -0.48408,-0.484077 z m 173.817086,0.01669 c 0.55085,-0.222271 1.45223,-0.222271 2.00308,0 0.55085,0.222272 0.10015,0.40413 -1.00154,0.40413 -1.10169,0 -1.55239,-0.181858 -1.00154,-0.40413 z m -4.00615,-0.801231 c 0.55084,-0.222271 1.45223,-0.222271 2.00307,0 0.55085,0.222272 0.10016,0.40413 -1.00154,0.40413 -1.10169,0 -1.55238,-0.181858 -1.00153,-0.40413 z m -4.75731,-0.817923 c 0.57838,-0.231453 1.26945,-0.202987 1.53569,0.06326 0.26624,0.266243 -0.20699,0.455613 -1.05161,0.420822 -0.9334,-0.03844 -1.12325,-0.228303 -0.48408,-0.484077 z m 58.48987,0 c 0.57839,-0.231453 1.26946,-0.202987 1.5357,0.06326 0.26624,0.266243 -0.20699,0.455613 -1.05162,0.420822 -0.93339,-0.03844 -1.12325,-0.228303 -0.48408,-0.484077 z M -20.135193,-87.87869 c 0.578385,-0.231452 1.269455,-0.202987 1.535696,0.06326 0.266241,0.266242 -0.20699,0.455613 -1.051616,0.420822 -0.933394,-0.03844 -1.123246,-0.228303 -0.48408,-0.484077 z M 131.24742,-87.862 c 0.55085,-0.222271 1.45223,-0.222271 2.00308,0 0.55085,0.222272 0.10015,0.40413 -1.00154,0.40413 -1.10169,0 -1.55239,-0.181858 -1.00154,-0.40413 z m -185.685322,-1.873048 c 1.54237,-0.844412 3.164863,-1.535295 3.60554,-1.535295 0.440677,0 -0.460708,0.690883 -2.003078,1.535295 -1.54237,0.844411 -3.164863,1.535294 -3.60554,1.535294 -0.440678,0 0.460708,-0.690883 2.003078,-1.535294 z m 38.308865,1.05513 c 0.578385,-0.231453 1.269455,-0.202987 1.535696,0.06326 0.266241,0.266243 -0.20699,0.455613 -1.051616,0.420823 -0.933395,-0.03844 -1.123246,-0.228304 -0.48408,-0.484078 z m 141.767837,0.01669 c 0.55085,-0.222271 1.45223,-0.222271 2.00308,0 0.55085,0.222272 0.10016,0.40413 -1.00154,0.40413 -1.10169,0 -1.55238,-0.181858 -1.00154,-0.40413 z m 63.34734,-0.01669 c 0.57839,-0.231453 1.26946,-0.202987 1.5357,0.06326 0.26624,0.266243 -0.20699,0.455613 -1.05162,0.420823 -0.93339,-0.03844 -1.12324,-0.228304 -0.48408,-0.484078 z m -201.960329,-0.784539 c 0.550846,-0.222272 1.452231,-0.222272 2.003078,0 0.550846,0.222271 0.100153,0.404129 -1.001539,0.404129 -1.101693,0 -1.552386,-0.181858 -1.001539,-0.404129 z m 133.420239,-0.02461 c 0.77957,-0.203147 1.86123,-0.189787 2.40369,0.02969 0.54246,0.219476 -0.0954,0.385687 -1.4174,0.369358 -1.32203,-0.01633 -1.76587,-0.195899 -0.98629,-0.399047 z m 65.33517,0.0079 c 0.57838,-0.231453 1.26945,-0.202987 1.53569,0.06326 0.26624,0.266243 -0.20699,0.455613 -1.05161,0.420823 -0.9334,-0.03844 -1.12325,-0.228304 -0.48408,-0.484078 z M -8.9680335,-90.265689 c 0.5508464,-0.222271 1.4522315,-0.222271 2.0030779,0 0.5508465,0.222272 0.1001539,0.40413 -1.0015389,0.40413 -1.1016929,0 -1.5523854,-0.181858 -1.001539,-0.40413 z m 123.8054635,-0.02461 c 0.77957,-0.203146 1.86124,-0.189786 2.40369,0.02969 0.54246,0.219476 -0.0954,0.385687 -1.4174,0.369358 -1.32203,-0.01633 -1.76586,-0.195899 -0.98629,-0.399047 z M -4.1606465,-91.06692 c 0.5508465,-0.222271 1.4522315,-0.222271 2.003078,0 0.5508464,0.222272 0.1001538,0.40413 -1.001539,0.40413 -1.1016929,0 -1.5523854,-0.181858 -1.001539,-0.40413 z m 112.1723665,0 c 0.55084,-0.222271 1.45223,-0.222271 2.00308,0 0.55084,0.222272 0.10015,0.40413 -1.00154,0.40413 -1.1017,0 -1.55239,-0.181858 -1.00154,-0.40413 z m 72.16088,-0.01669 c 0.57838,-0.231452 1.26945,-0.202987 1.5357,0.06326 0.26624,0.266242 -0.20699,0.455613 -1.05162,0.420822 -0.93339,-0.03844 -1.12325,-0.228303 -0.48408,-0.484077 z M 1.0626036,-91.892757 c 0.7795739,-0.203146 1.8612359,-0.189787 2.4036935,0.02969 0.5424575,0.219475 -0.095371,0.385687 -1.417402,0.369358 -1.32203143,-0.01633 -1.76586543,-0.1959 -0.9862915,-0.399047 z m 99.7473764,-0.01143 c 0.99666,-0.191649 2.43887,-0.184373 3.20492,0.01617 0.76605,0.200542 -0.0494,0.357346 -1.81211,0.348453 -1.76271,-0.0089 -2.38947,-0.172973 -1.39281,-0.364621 z m 76.1577,0.01935 c 0.57838,-0.231452 1.26945,-0.202987 1.53569,0.06326 0.26624,0.266243 -0.20699,0.455613 -1.05162,0.420823 -0.93339,-0.03844 -1.12324,-0.228304 -0.48407,-0.484077 z M 7.4724529,-92.693988 c 0.7795739,-0.203147 1.861236,-0.189787 2.4036935,0.02969 0.5424576,0.219475 -0.09537,0.385687 -1.4174019,0.369357 -1.3220315,-0.01633 -1.7658655,-0.195899 -0.9862916,-0.399047 z m 84.5239831,-0.01143 c 0.99666,-0.191649 2.438876,-0.184373 3.204925,0.01617 0.766049,0.200542 -0.04944,0.357346 -1.812112,0.348453 -1.762709,-0.0089 -2.389472,-0.172974 -1.392813,-0.364622 z M -44.823128,-93.7412 c 0.661015,-0.427182 1.5624,-0.776693 2.003078,-0.776693 0.440677,0 0.2604,0.349511 -0.400616,0.776693 -0.661016,0.427181 -1.562401,0.776692 -2.003078,0.776692 -0.440677,0 -0.2604,-0.349511 0.400616,-0.776692 z m 59.901372,0.234551 c 0.996659,-0.191649 2.438876,-0.184373 3.204925,0.01617 0.766049,0.200542 -0.04944,0.357346 -1.812113,0.348453 -1.762708,-0.0089 -2.389471,-0.172974 -1.392812,-0.364622 z m 66.904477,-0.0083 c 1.21792,-0.184167 3.02069,-0.179245 4.006156,0.01094 0.985466,0.190182 -0.01106,0.340863 -2.214402,0.334848 -2.203386,-0.006 -3.009673,-0.161618 -1.791754,-0.345785 z m 87.773869,0.02762 c 0.57839,-0.231453 1.26946,-0.202987 1.5357,0.06326 0.26624,0.266243 -0.20699,0.455613 -1.05162,0.420823 -0.93339,-0.03844 -1.12324,-0.228304 -0.48408,-0.484078 z M 25.084291,-94.324876 c 1.65254,-0.172861 4.356695,-0.172861 6.009234,0 1.652539,0.172861 0.300462,0.314293 -3.004617,0.314293 -3.305078,0 -4.657156,-0.141432 -3.004617,-0.314293 z m 41.263406,-0.003 c 1.872877,-0.168688 4.937587,-0.168688 6.810464,0 1.872878,0.168687 0.340524,0.306704 -3.405232,0.306704 -3.745756,0 -5.27811,-0.138017 -3.405232,-0.306704 z m 100.203973,0.03933 c 0.57838,-0.231452 1.26945,-0.202987 1.5357,0.06326 0.26624,0.266243 -0.20699,0.455613 -1.05162,0.420823 -0.93339,-0.03844 -1.12325,-0.228304 -0.48408,-0.484077 z m -4.05623,-0.784568 c 0.55084,-0.222271 1.45223,-0.222271 2.00307,0 0.55085,0.222272 0.10016,0.40413 -1.00153,0.40413 -1.1017,0 -1.55239,-0.181858 -1.00154,-0.40413 z m -3.15485,-0.817923 c 0.57838,-0.231453 1.26945,-0.202987 1.5357,0.06326 0.26624,0.266243 -0.207,0.455613 -1.05162,0.420823 -0.9334,-0.03844 -1.12325,-0.228304 -0.48408,-0.484078 z m -4.00616,-0.801231 c 0.57839,-0.231453 1.26946,-0.202987 1.5357,0.06326 0.26624,0.266243 -0.20699,0.455613 -1.05162,0.420823 -0.93339,-0.03844 -1.12324,-0.228304 -0.48408,-0.484078 z m -4.05623,-0.784539 c 0.55085,-0.222272 1.45223,-0.222272 2.00308,0 0.55085,0.222271 0.10015,0.404129 -1.00154,0.404129 -1.10169,0 -1.55239,-0.181858 -1.00154,-0.404129 z m -3.95608,-0.817924 c 0.57839,-0.231452 1.26946,-0.202987 1.5357,0.06326 0.26624,0.266243 -0.20699,0.455613 -1.05162,0.420823 -0.93339,-0.03844 -1.12324,-0.228303 -0.48408,-0.484077 z m -175.469625,-0.801231 c 0.578385,-0.231452 1.269447,-0.202987 1.535696,0.06326 0.266241,0.266243 -0.20699,0.455613 -1.051616,0.420823 -0.933394,-0.03844 -1.123246,-0.228304 -0.48408,-0.484078 z m 170.612165,0.01669 c 0.55084,-0.222271 1.45223,-0.222271 2.00308,0 0.55084,0.222272 0.10015,0.40413 -1.00154,0.40413 -1.1017,0 -1.55239,-0.181858 -1.00154,-0.40413 z m -4.00616,-0.801231 c 0.55085,-0.222277 1.45223,-0.222277 2.00308,0 0.55085,0.222271 0.10015,0.404129 -1.00154,0.404129 -1.10169,0 -1.55238,-0.181858 -1.00154,-0.404129 z m -4.75731,-0.817927 c 0.57839,-0.23145 1.26946,-0.20299 1.5357,0.0633 0.26624,0.26624 -0.20699,0.45561 -1.05162,0.42082 -0.93339,-0.0384 -1.12324,-0.2283 -0.48408,-0.48408 z m -152.233921,-0.80123 c 0.578385,-0.23145 1.269455,-0.20299 1.535696,0.0633 0.266241,0.26624 -0.20699,0.45561 -1.051616,0.42082 -0.933394,-0.0384 -1.123246,-0.2283 -0.48408,-0.48408 z m 146.575231,0.0167 c 0.55084,-0.22227 1.45223,-0.22227 2.00307,0 0.55085,0.22227 0.10016,0.40413 -1.00153,0.40413 -1.1017,0 -1.55239,-0.18186 -1.00154,-0.40413 z m -4.75731,-0.81792 c 0.57838,-0.23146 1.26945,-0.20299 1.53569,0.0632 0.26624,0.26625 -0.20699,0.45562 -1.05161,0.42083 -0.9334,-0.0384 -1.12325,-0.22831 -0.48408,-0.48408 z m -133.855686,-0.78454 c 0.550847,-0.22227 1.4522317,-0.22227 2.0030781,0 0.5508464,0.22227 0.1001539,0.40413 -1.001539,0.40413 -1.1016931,0 -1.5523851,-0.18186 -1.0015391,-0.40413 z m 127.010386,-0.0246 c 0.77958,-0.20315 1.86124,-0.18979 2.4037,0.0297 0.54245,0.21948 -0.0954,0.38569 -1.41741,0.36936 -1.32203,-0.0163 -1.76586,-0.1959 -0.98629,-0.39905 z m -123.00423,-0.77663 c 0.5508464,-0.22227 1.4522315,-0.22227 2.0030779,0 0.5508465,0.22227 0.1001539,0.40413 -1.0015389,0.40413 -1.1016929,0 -1.5523854,-0.18186 -1.001539,-0.40413 z m 116.57914,-0.0217 c 0.77118,-0.20153 2.03312,-0.20153 2.8043,0 0.77119,0.20153 0.14022,0.36642 -1.40215,0.36642 -1.54237,0 -2.17334,-0.16489 -1.40215,-0.36642 z m -110.97052179,-0.77956 c 0.55084643,-0.22228 1.45223149,-0.22228 2.00307789,0 0.5508465,0.22227 0.1001539,0.40413 -1.00153893,0.40413 -1.10169287,0 -1.55238537,-0.18186 -1.00153896,-0.40413 z m 104.57591179,-0.0246 c 0.77958,-0.20315 1.86124,-0.18979 2.4037,0.0297 0.54245,0.21947 -0.0954,0.38568 -1.41741,0.36935 -1.32203,-0.0163 -1.76586,-0.1959 -0.98629,-0.39904 z M 5.053512,-105.5108 c 0.771185,-0.20153 2.0331241,-0.20153 2.8043091,0 0.771185,0.20153 0.1402154,0.36642 -1.4021546,0.36642 -1.54237,0 -2.1733395,-0.16489 -1.4021545,-0.36642 z m 89.337276,-0.0131 c 0.991523,-0.19097 2.614016,-0.19097 3.60554,0 0.991523,0.19098 0.180277,0.34723 -1.80277,0.34723 -1.983047,0 -2.794294,-0.15625 -1.80277,-0.34723 z m -82.126195,-0.78808 c 0.771185,-0.20154 2.033124,-0.20154 2.804309,0 0.771185,0.20153 0.140215,0.36642 -1.402155,0.36642 -1.54237,0 -2.173339,-0.16489 -1.402154,-0.36642 z m 72.520763,-0.0144 c 0.996659,-0.19165 2.438875,-0.18437 3.204925,0.0162 0.766049,0.20054 -0.04944,0.35734 -1.812113,0.34845 -1.762709,-0.009 -2.389472,-0.17297 -1.392812,-0.36462 z m -62.491024,-0.81523 c 1.440093,-0.17832 3.603417,-0.17464 4.807387,0.008 1.20397,0.18282 0.02572,0.32872 -2.618351,0.32423 -2.644063,-0.004 -3.629129,-0.15408 -2.189036,-0.3324 z m 48.041653,0.002 c 1.42237,-0.177 3.946248,-0.17991 5.608618,-0.006 1.662363,0.17345 0.498606,0.31827 -2.586134,0.32183 -3.08474,0.004 -4.444862,-0.13836 -3.022484,-0.31536 z m -28.025224,-0.81787 c 3.19491,-0.15209 8.422943,-0.15209 11.617852,0 3.19491,0.15208 0.580893,0.27651 -5.808926,0.27651 -6.389818,0 -9.003835,-0.12443 -5.808926,-0.27651 z"
       id="path4554" />
    <path
       style="fill:#4fafd4;stroke-width:0.801231"
       d="m -111.19881,159.44785 c 0,-1.10169 0.18186,-1.55238 0.40413,-1.00153 0.22227,0.55084 0.22227,1.45223 0,2.00307 -0.22227,0.55085 -0.40413,0.10016 -0.40413,-1.00154 z m 141.906967,-5.36263 c 0.779574,-0.20314 1.861236,-0.18979 2.403693,0.0297 0.542458,0.21948 -0.09537,0.38569 -1.417402,0.36936 -1.322031,-0.0163 -1.765865,-0.1959 -0.986291,-0.39905 z m 19.013993,-7.05645 c 1.494921,-1.54237 2.898317,-2.80431 3.118656,-2.80431 0.220338,0 -0.822504,1.26194 -2.317425,2.80431 -1.494921,1.54237 -2.898318,2.80431 -3.118656,2.80431 -0.220339,0 0.822504,-1.26194 2.317425,-2.80431 z m 11.343743,-25.23878 c 0,-1.1017 0.181863,-1.55239 0.404133,-1.00154 0.222269,0.55085 0.222269,1.45223 0,2.00308 -0.22227,0.55084 -0.404133,0.10015 -0.404133,-1.00154 z m 0,-16.02463 c 0,-1.10169 0.181863,-1.55238 0.404133,-1.00154 0.222269,0.55085 0.222269,1.45224 0,2.00308 -0.22227,0.55085 -0.404133,0.10016 -0.404133,-1.00154 z m -0.864481,-6.877228 c 0.03846,-0.933394 0.228303,-1.123246 0.484072,-0.48408 0.231452,0.578385 0.202992,1.269455 -0.06322,1.535696 -0.266241,0.266242 -0.455612,-0.20699 -0.420823,-1.051616 z M 59.46343,92.945665 c 0,-1.101693 0.181864,-1.552386 0.404133,-1.001539 0.22227,0.550846 0.22227,1.452231 0,2.003078 -0.222269,0.550846 -0.404133,0.100153 -0.404133,-1.001539 z m -0.801231,-7.211081 c 0,-1.101693 0.181863,-1.552386 0.404133,-1.001539 0.22227,0.550846 0.22227,1.452231 0,2.003078 -0.22227,0.550846 -0.404133,0.100154 -0.404133,-1.001539 z M -130.65707,66.705343 c -0.99663,-1.270801 -0.96829,-1.29914 0.30251,-0.302513 0.77119,0.604809 1.40216,1.235779 1.40216,1.402155 0,0.659445 -0.65796,0.235009 -1.70467,-1.099642 z m 189.25602,-0.66769 c 0.03846,-0.933394 0.228303,-1.123246 0.484072,-0.48408 0.231451,0.578385 0.202992,1.269447 -0.06322,1.535696 -0.266242,0.266241 -0.455613,-0.20699 -0.420823,-1.051616 z m -194.06341,-3.338466 c -0.99662,-1.270801 -0.96828,-1.29914 0.30252,-0.302513 0.77118,0.604809 1.40215,1.235779 1.40215,1.402155 0,0.659445 -0.65796,0.235009 -1.70467,-1.099642 z m 190.394612,-1.02399 c -1.177657,-0.544548 -0.82538,-0.619792 1.328882,-0.283844 2.39359,0.373278 3.009833,0.186078 3.359226,-1.02044 0.370321,-1.278797 0.406024,-1.261995 0.2654,0.124888 -0.181896,1.793845 -2.4545,2.334932 -4.953508,1.179396 z m -3.755771,-1.326109 c 0.578385,-0.231452 1.269455,-0.202992 1.535696,0.06322 0.266241,0.266241 -0.20699,0.455612 -1.051616,0.420822 -0.933394,-0.03846 -1.123246,-0.228302 -0.48408,-0.484071 z m -191.820761,-2.056673 -1.52634,-1.80277 1.80277,1.526338 c 1.69416,1.43438 2.16753,2.079202 1.52634,2.079202 -0.15204,0 -0.96329,-0.811246 -1.80277,-1.80277 z m 186.762989,1.001539 c -1.010064,-0.434043 -1.158163,-0.688602 -0.400615,-0.688602 0.661016,0 1.922955,0.309868 2.804309,0.688602 1.010064,0.434043 1.158164,0.688602 0.400616,0.688602 -0.661016,0 -1.922955,-0.309868 -2.80431,-0.688602 z m -6.810464,-2.003078 c -1.54237,-0.59396 -2.263479,-1.079931 -1.602463,-1.079931 0.661016,0 2.463786,0.485971 4.006156,1.079931 1.54237,0.593961 2.263478,1.079932 1.602462,1.079932 -0.661015,0 -2.463785,-0.485971 -4.006155,-1.079932 z m -186.747505,-5.007695 -1.94244,-2.203385 2.20339,1.942432 c 2.0594,1.815502 2.57082,2.464339 1.94243,2.464339 -0.14351,0 -1.13504,-0.991524 -2.20338,-2.203386 z M 61.362396,50.551512 c -1.432593,-0.559868 -1.383341,-0.65511 0.527779,-1.02044 1.542498,-0.294869 1.997021,-0.114143 1.694652,0.673812 -0.227261,0.592222 -0.464754,1.051415 -0.527779,1.02044 -0.06298,-0.03093 -0.825612,-0.334186 -1.694652,-0.673812 z M 14.618209,49.131851 c -1.900424,-0.672129 -3.313644,-1.363728 -3.14049,-1.536874 0.365562,-0.365561 7.797646,2.074548 7.797646,2.560134 0,0.501723 -0.911689,0.301407 -4.657156,-1.02326 z m 37.357403,-1.602463 c 0.578385,-0.231451 1.269455,-0.202991 1.535696,0.06322 0.266241,0.266241 -0.20699,0.455612 -1.051616,0.420822 -0.933394,-0.03846 -1.123246,-0.228303 -0.48408,-0.484072 z M 8.0581289,46.474255 C 7.3971132,46.047071 7.2168361,45.697566 7.6575133,45.697566 c 0.4406771,0 1.3420622,0.349505 2.0030779,0.776689 0.6610158,0.427185 0.8412928,0.77669 0.4006158,0.77669 -0.4406773,0 -1.3420624,-0.349505 -2.0030781,-0.77669 z M 46.366994,45.926926 c 0.578385,-0.231452 1.269455,-0.202992 1.535696,0.06322 0.266241,0.266241 -0.20699,0.455612 -1.051616,0.420823 -0.933394,-0.03846 -1.123246,-0.228303 -0.48408,-0.484072 z M 2.8501263,44.442982 C 0.84655158,43.477939 0.77986511,43.36672 2.4495107,43.774811 4.7197992,44.329712 7.2717205,45.630398 6.055051,45.612523 5.6143738,45.606113 4.1721577,45.079752 2.8501263,44.442982 Z m -163.8791463,-4.9795 -4.3794,-4.607079 4.60708,4.379401 c 4.28012,4.068604 4.97412,4.834758 4.3794,4.834758 -0.12522,0 -2.19841,-2.073186 -4.60708,-4.60708 z m 158.6711437,3.004617 c -0.6610158,-0.427184 -0.8412928,-0.776689 -0.4006156,-0.776689 0.4406771,0 1.3420622,0.349505 2.0030779,0.776689 0.66101572,0.427185 0.84129273,0.77669 0.40061559,0.77669 -0.44067715,0 -1.34206219,-0.349505 -2.00307789,-0.77669 z m -6.810465,-2.786794 c -2.2033857,-1.037971 -3.6456017,-1.895096 -3.2049247,-1.904735 0.440677,-0.0096 2.6040013,0.831734 4.807387,1.869705 2.2033858,1.037971 3.6456019,1.895096 3.2049247,1.904735 -0.4406771,0.0096 -2.6040013,-0.831734 -4.807387,-1.869705 z m -7.6116957,-3.22244 c -1.101693,-0.629784 -1.642524,-1.145063 -1.201847,-1.145063 0.440677,0 1.702616,0.515279 2.804309,1.145063 1.101693,0.629784 1.642524,1.145064 1.201847,1.145064 -0.440677,0 -1.702617,-0.51528 -2.804309,-1.145064 z m 84.19253,-0.867998 c 0.03846,-0.933394 0.228303,-1.123246 0.484072,-0.484079 0.231451,0.578384 0.202991,1.269446 -0.06322,1.535695 -0.266241,0.266241 -0.455612,-0.20699 -0.420822,-1.051616 z M -23.991118,33.25394 c -1.983047,-1.061863 -3.244986,-1.93067 -2.804309,-1.93067 0.440677,0 2.423724,0.868807 4.406771,1.93067 1.983048,1.061864 3.244987,1.930671 2.804309,1.930671 -0.440677,0 -2.423724,-0.868807 -4.406771,-1.930671 z m 33.6517092,0.400616 c -0.6610157,-0.427184 -0.8412927,-0.77669 -0.4006156,-0.77669 0.4406772,0 1.3420624,0.349506 2.0030784,0.77669 0.661015,0.427184 0.841292,0.776689 0.400615,0.776689 -0.440677,0 -1.342062,-0.349505 -2.0030778,-0.776689 z M 5.6544354,32.052094 c -0.6610158,-0.427185 -0.8412928,-0.77669 -0.4006156,-0.77669 0.4406771,0 1.3420622,0.349505 2.0030779,0.77669 0.6610157,0.427184 0.8412927,0.776689 0.4006156,0.776689 -0.4406772,0 -1.3420622,-0.349505 -2.0030779,-0.776689 z M -35.208354,28.045938 c -3.305079,-1.71909 -5.64868,-3.125619 -5.208003,-3.125619 0.440677,0 3.505386,1.406529 6.810465,3.125619 3.305079,1.719089 5.64868,3.125619 5.208003,3.125619 -0.440678,0 -3.505387,-1.40653 -6.810465,-3.125619 z M 1.6482795,30.449631 C 0.9872638,30.022447 0.80698678,29.672942 1.2476639,29.672942 c 0.4406772,0 1.3420622,0.349505 2.003078,0.776689 0.6610157,0.427185 0.8412927,0.77669 0.4006155,0.77669 -0.4406771,0 -1.3420622,-0.349505 -2.0030779,-0.77669 z m -174.3439095,-3.405232 -1.52633,-1.802771 1.80277,1.526338 c 1.69416,1.43438 2.16752,2.079203 1.52633,2.079203 -0.15204,0 -0.96328,-0.811247 -1.80277,-1.80277 z M -7.9664945,26.443475 c -0.6610158,-0.427184 -0.8412928,-0.776689 -0.4006156,-0.776689 0.4406771,0 1.3420622,0.349505 2.0030779,0.776689 0.6610157,0.427185 0.8412927,0.77669 0.4006156,0.77669 -0.4406772,0 -1.3420622,-0.349505 -2.0030779,-0.77669 z M 67.412493,25.174862 c 0.03846,-0.933394 0.228303,-1.123246 0.484072,-0.48408 0.231451,0.578385 0.202991,1.269447 -0.06322,1.535696 -0.266241,0.266241 -0.455612,-0.20699 -0.420822,-1.051616 z m -80.987606,-1.13508 c -0.661015,-0.427185 -0.841292,-0.77669 -0.400615,-0.77669 0.440677,0 1.342062,0.349505 2.003078,0.77669 0.661015,0.427184 0.841292,0.776689 0.400615,0.776689 -0.440677,0 -1.342062,-0.349505 -2.003078,-0.776689 z M -177.9297,21.035165 c -0.99663,-1.270801 -0.96829,-1.299141 0.30251,-0.302513 0.77118,0.604809 1.40215,1.235779 1.40215,1.402154 0,0.659446 -0.65796,0.235009 -1.70466,-1.099641 z m 129.901647,0.600923 c -0.722142,-0.466685 -0.820966,-0.781593 -0.247597,-0.788964 0.524839,-0.0064 1.177089,0.348287 1.449444,0.788964 0.614784,0.994753 0.337414,0.994753 -1.201847,0 z m 27.24186,-0.801231 c -0.661016,-0.427185 -0.841293,-0.77669 -0.400616,-0.77669 0.440677,0 1.342062,0.349505 2.003078,0.77669 0.661016,0.427184 0.841293,0.776689 0.400616,0.776689 -0.440677,0 -1.342063,-0.349505 -2.003078,-0.776689 z m -34.653248,-2.854763 c -2.974571,-1.526778 -5.408311,-2.95579 -5.408311,-3.175592 0,-0.219801 2.523878,0.871363 5.608618,2.424814 3.08474,1.553451 5.608619,3.000203 5.608619,3.214997 0,0.537345 0.224416,0.63254 -5.808926,-2.464219 z m 15.223392,-6.407774 c -4.737279,-2.4049278 -8.613235,-4.5526921 -8.613235,-4.7728064 0,-0.3582064 17.547163,8.1651544 18.36155,8.9189454 1.223039,1.132043 -2.317513,-0.373815 -9.748315,-4.146139 z m -25.639398,0.796944 c -2.093216,-1.089618 -3.805848,-2.160568 -3.805848,-2.3798807 0,-0.219321 1.80277,0.5147747 4.006156,1.6313147 2.203386,1.11654 4.006156,2.204275 4.006156,2.417194 0,0.529975 0.07211,0.558571 -4.206464,-1.668628 z m -7.21108,-4.0111554 c -2.995355,-1.625009 -2.813027,-2.301825 0.200308,-0.7435666 1.322031,0.6836506 2.403693,1.4140129 2.403693,1.623038 0,0.5155923 -0.08609,0.4865156 -2.604001,-0.8794714 z M 57.632256,5.8117718 C 56.635629,4.5409711 56.663969,4.5126315 57.934769,5.509259 c 1.334651,1.0467044 1.759087,1.7046674 1.099642,1.7046674 -0.166376,0 -0.797345,-0.6309695 -1.402155,-1.4021546 z M -78.12139,5.1666445 c -1.493511,-1.1965506 -1.483688,-1.2113414 0.247476,-0.3724203 0.991523,0.4804904 1.80277,1.041208 1.80277,1.2460428 0,0.6131181 -0.415527,0.436062 -2.050246,-0.8736225 z m -4.960527,-2.8522869 c -2.731004,-1.74898355 -3.614802,-2.92349233 -1.201847,-1.59718228 1.838369,1.01048078 4.718315,3.23753488 4.206464,3.25284638 -0.220338,0.00641 -1.572416,-0.7384547 -3.004617,-1.6556641 z m 24.991306,-0.3526379 c -1.493511,-1.19655063 -1.483688,-1.21134136 0.247476,-0.3724202 0.991524,0.4804903 1.80277,1.0412079 1.80277,1.2460427 0,0.6131181 -0.415526,0.436062 -2.050246,-0.8736225 z m -33.203925,-5.4359931 c -5.783495,-4.5620822 -10.692314,-9.9799356 -12.818674,-14.1479566 -0.9434,-1.849225 -1.59132,-3.486173 -1.43983,-3.637677 0.15151,-0.151497 1.28922,1.6608 2.52825,4.027324 2.12779,4.064037 7.873327,10.1593553 14.133947,14.994417 1.54237,1.1911744 2.624032,2.18246569 2.403694,2.20288106 -0.220339,0.0204314 -2.383663,-1.52712266 -4.807387,-3.43898846 z m 25.992844,1.4298371 c -1.493511,-1.1965506 -1.483688,-1.2113414 0.247477,-0.3724202 0.991523,0.4804903 1.80277,1.0412079 1.80277,1.2460427 0,0.61311811 -0.415527,0.43606204 -2.050247,-0.8736225 z M 45.613789,-6.2066961 c -0.996628,-1.2708008 -0.968288,-1.2991403 0.302513,-0.3025129 1.334651,1.0467044 1.759087,1.7046675 1.099641,1.7046675 -0.166375,0 -0.797345,-0.6309696 -1.402154,-1.4021546 z M -74.916466,-7.6530546 c -1.493511,-1.1965507 -1.483688,-1.2113414 0.247476,-0.3724203 0.991524,0.4804903 1.802771,1.0412079 1.802771,1.2460427 0,0.6131181 -0.415527,0.4360621 -2.050247,-0.8736224 z m -8.842499,-6.1653384 -1.526338,-1.80277 1.802771,1.526338 c 0.991523,0.839482 1.80277,1.650728 1.80277,1.80277 0,0.641185 -0.644823,0.167818 -2.079203,-1.526338 z m -4.781668,-4.006155 -2.353288,-2.604002 2.604002,2.353288 c 1.4322,1.294309 2.604001,2.46611 2.604001,2.604002 0,0.618999 -0.66112,0.07403 -2.854715,-2.353288 z m -4.045816,-5.032702 c -0.730867,-1.115442 -1.183098,-2.173828 -1.004961,-2.351966 0.178138,-0.178138 0.931311,0.734497 1.673732,2.028084 1.653477,2.881011 1.162523,3.118785 -0.668771,0.323882 z m -13.868221,-0.842991 c 0.0385,-0.933395 0.2283,-1.123246 0.48407,-0.48408 0.23145,0.578385 0.20299,1.269447 -0.0632,1.535696 -0.26625,0.266241 -0.45561,-0.20699 -0.42082,-1.051616 z m -0.61621,-6.343083 c 0.005,-2.644063 0.15407,-3.629129 0.3324,-2.189036 0.17832,1.440093 0.17464,3.603417 -0.008,4.807387 -0.18282,1.20397 -0.32872,0.02572 -0.32422,-2.618351 z m 12.634676,2.336927 c 0.03846,-0.933395 0.228303,-1.123246 0.484072,-0.48408 0.231452,0.578385 0.202992,1.269447 -0.06322,1.535696 -0.266249,0.266241 -0.455612,-0.20699 -0.420823,-1.051616 z m 0,-4.807387 c 0.03846,-0.933395 0.228303,-1.123246 0.484072,-0.48408 0.231452,0.578384 0.202992,1.269446 -0.06322,1.535695 -0.266249,0.266242 -0.455612,-0.20699 -0.420823,-1.051615 z m -12.050346,-3.93939 c -0.0575,-3.482832 10.214333,-20.348474 13.708005,-22.507679 0.483912,-0.299079 -0.903885,1.758366 -3.084011,4.5721 -5.142134,6.636593 -7.210594,10.12579 -9.076244,15.310369 -0.83672,2.325221 -1.53322,3.506564 -1.54775,2.62521 z m -105.73064,-8.079081 c 0.0384,-0.933388 0.22831,-1.123246 0.48408,-0.484077 0.23145,0.578389 0.20299,1.269446 -0.0633,1.535696 -0.26624,0.266241 -0.45561,-0.206991 -0.42082,-1.051619 z m 124.127578,-0.636355 c 0,-0.166381 0.63097,-0.79735 1.402155,-1.402155 1.270801,-0.996628 1.29914,-0.968289 0.302513,0.302509 -1.046705,1.334649 -1.704668,1.759086 -1.704668,1.099646 z m 2.403694,-3.153129 c 0,-0.137892 1.1718,-1.309692 2.604001,-2.604001 l 2.604002,-2.353289 -2.353289,2.604001 c -2.193594,2.427294 -2.854714,2.972289 -2.854714,2.353289 z m -127.239562,-4.95729 c 0.0163,-1.322031 0.1959,-1.765862 0.39905,-0.98629 0.20315,0.779572 0.18979,1.861234 -0.0297,2.403694 -0.21948,0.542459 -0.38569,-0.09537 -0.36937,-1.417404 z m 137.254952,-6.009234 c 2.616476,-2.644063 4.937498,-4.807387 5.157837,-4.807387 0.220339,0 -1.74013,2.163324 -4.356606,4.807387 -2.616477,2.644063 -4.937499,4.807387 -5.157838,4.807387 -0.220338,0 1.74013,-2.163324 4.356607,-4.807387 z m -9.789683,-7.653066 c 3.869898,-3.988847 6.765315,-7.523305 6.434271,-7.85435 -0.331045,-0.331047 0.03365,-0.358027 0.810389,-0.05996 0.776753,0.298071 1.295519,0.587543 1.152803,0.643271 -0.142723,0.05573 -3.673677,3.346311 -7.846561,7.312406 l -7.587074,7.21108 z m 18.271508,-0.05335 c 1.063802,-1.374127 2.095339,-2.354724 2.292306,-2.179106 0.196967,0.175618 -0.673411,1.299904 -1.93418,2.498412 l -2.292306,2.179103 1.93418,-2.498412 z m -145.766457,-8.318212 c 0,-1.101693 0.18185,-1.552385 0.40413,-1.001539 0.22227,0.550847 0.22227,1.452232 0,2.003078 -0.22228,0.550847 -0.40413,0.100154 -0.40413,-1.001539 z m 26.52967,-26.194639 c 0.77957,-0.20315 1.86123,-0.18979 2.40369,0.0297 0.54246,0.21948 -0.0954,0.38569 -1.4174,0.36937 -1.32203,-0.0163 -1.76586,-0.1959 -0.98629,-0.39905 z"
       id="path4552" />
    <path
       style="fill:#ea652c;stroke-width:0.801231"
       d="M 129.84527,74.787274 C 117.20673,73.54857 109.65949,72.604247 101.40156,71.228365 90.272219,69.37406 62.347598,63.3692 61.010295,62.542706 59.72121,61.746002 63.006851,51.281642 64.546096,51.281642 c 0.626242,0 4.127158,0.691655 7.779803,1.537018 30.639691,7.091161 51.226601,9.890454 73.543991,10.000127 13.67417,0.06722 17.29753,-0.165382 21.63324,-1.38859 11.0994,-3.131404 17.32207,-8.384412 21.29976,-17.980638 9.71679,-23.441925 11.05996,-25.571125 23.86958,-37.838095 25.45951,-24.380977 28.16898,-27.682562 31.36666,-38.22146 1.55399,-5.121646 1.50173,-12.544994 -0.11226,-15.946232 -3.10888,-6.551475 -12.72024,-12.849466 -28.117,-18.424077 -34.37927,-12.447503 -76.09078,-21.210636 -124.423699,-26.140057 -16.077842,-1.639761 -71.420922,-1.362865 -84.5298889,0.422926 -27.5150231,3.748281 -47.2064171,9.622745 -63.9681331,19.083388 l -7.080728,3.9965 -5.738971,-2.191202 c -3.156442,-1.205159 -6.032726,-2.437834 -6.391758,-2.739274 -1.503886,-1.262674 12.537538,-10.305003 23.888483,-15.38359 17.552564,-7.853285 34.848861,-12.216656 61.7489558,-15.577536 13.8773002,-1.73381 61.1057512,-1.98189 78.4664992,-0.41216 48.34546,4.37133 90.54884,12.88486 128.34789,25.891154 16.54027,5.691346 25.02336,10.180114 31.54906,16.693962 7.02297,7.010201 9.06199,11.337569 9.4442,20.043206 0.36789,8.379372 -0.76709,13.765753 -4.67041,22.164675 -4.14895,8.927438 -8.10023,14.0023082 -17.76483,22.8163882 -22.97415,20.9523558 -25.18529,23.7183108 -31.95397,39.9717098 -7.2338,17.370308 -11.3466,22.525974 -22.37947,28.054205 -8.27601,4.146852 -17.25374,5.603739 -33.68198,5.465839 -7.71185,-0.06474 -15.28348,-0.241387 -16.82585,-0.392555 z"
       id="path4550" />
    <path
       style="fill:#305391;stroke-width:0.801231"
       d="m 27.8886,153.25257 c 1.872878,-0.16869 4.937587,-0.16869 6.810465,0 1.872878,0.16869 0.340524,0.30671 -3.405232,0.30671 -3.745756,0 -5.278111,-0.13802 -3.405233,-0.30671 z m -9.815081,-1.39398 c -4.302812,-1.41809 -2.609162,-1.47349 2.403693,-0.0786 2.203386,0.61311 3.285048,1.11928 2.403694,1.12482 -0.881355,0.006 -3.044679,-0.46525 -4.807387,-1.04619 z m 23.985151,-0.43947 c 2.17491,-0.84916 5.599853,-3.08576 7.610991,-4.97022 l 3.656611,-3.42629 -3.204212,3.50075 c -3.089275,3.37516 -8.322861,6.50081 -10.815915,6.45957 -0.661016,-0.0109 0.577623,-0.71465 2.752525,-1.56381 z m -30.395001,-1.58604 c -1.056615,-0.45404 -1.193081,-0.7036 -0.400615,-0.73265 0.661015,-0.0242 1.742677,0.30547 2.403693,0.73265 1.464627,0.94651 0.199579,0.94651 -2.003078,0 z m -4.4067713,-1.60246 c -0.6610157,-0.42719 -0.8412927,-0.77669 -0.4006156,-0.77669 0.4406772,0 1.3420622,0.3495 2.0030779,0.77669 0.6610158,0.42718 0.8412928,0.77669 0.4006156,0.77669 -0.4406771,0 -1.3420622,-0.34951 -2.0030779,-0.77669 z m -4.0061558,-1.60247 c -0.6610158,-0.42718 -0.8412928,-0.77668 -0.4006156,-0.77668 0.4406771,0 1.3420622,0.3495 2.0030779,0.77668 0.6610157,0.42719 0.8412927,0.77669 0.4006156,0.77669 -0.4406772,0 -1.3420622,-0.3495 -2.0030779,-0.77669 z m -10.2418336,-4.16608 c -4.0906373,-1.79289 -7.3062103,-3.39111 -7.1457163,-3.55161 0.27959,-0.27959 15.02956658,5.89911 15.7183209,6.58433 0.8934289,0.88885 -1.79594363,-0.0626 -8.5726046,-3.03272 z m 62.3861907,-3.84623 c 1.168043,-2.45259 1.538131,-2.90714 1.538131,-1.88914 0,0.4299 -0.560717,1.48152 -1.24605,2.33693 -1.174902,1.4665 -1.191583,1.44093 -0.292081,-0.44779 z m -86.797605,-7.65874 c -7.381342,-3.72497 -13.420622,-6.95288 -13.420622,-7.17312 0,-0.35813 27.161648,12.96249 27.976324,13.72015 1.325204,1.23247 -2.954235,-0.6924 -14.555702,-6.54703 z m 91.603918,-6.42957 c 0.03846,-0.93339 0.228303,-1.12325 0.484072,-0.48408 0.231452,0.57839 0.202992,1.26946 -0.06322,1.5357 -0.266241,0.26624 -0.455612,-0.20699 -0.420823,-1.05162 z m -110.032235,-3.19582 c -2.995355,-1.62501 -2.813027,-2.30183 0.200308,-0.74357 1.322031,0.68365 2.403693,1.41401 2.403693,1.62304 0,0.51559 -0.08609,0.48651 -2.604001,-0.87947 z m 111.050167,-7.55403 c 0,-3.74576 0.13802,-5.27811 0.306712,-3.40524 0.168683,1.87288 0.168683,4.93759 0,6.81047 -0.168692,1.87288 -0.306712,0.34052 -0.306712,-3.40523 z m -120.264326,2.31988 c -2.313555,-1.34869 -4.206463,-2.63693 -4.206463,-2.86277 0,-0.44485 7.125597,3.5172 8.372865,4.65557 1.357831,1.23927 0.124472,0.70856 -4.166402,-1.7928 z m -7.057941,-4.36717 c -1.493511,-1.19655 -1.483688,-1.21134 0.247476,-0.37242 0.991524,0.48049 1.802771,1.04121 1.802771,1.24605 0,0.61311 -0.415527,0.43606 -2.050247,-0.87363 z m -4.006156,-2.40369 c -1.493511,-1.19655 -1.483688,-1.21134 0.247477,-0.37242 0.991523,0.48049 1.80277,1.04121 1.80277,1.24604 0,0.61312 -0.415527,0.43606 -2.050247,-0.87362 z m -7.36422,-4.45475 c -2.731004,-1.74898 -3.614802,-2.92349 -1.201846,-1.59718 1.838368,1.01048 4.718314,3.23753 4.206463,3.25285 -0.220338,0.006 -1.572416,-0.73846 -3.004617,-1.65567 z m 137.73796,-3.11274 c 0,-1.1017 0.181864,-1.55239 0.404133,-1.00154 0.22227,0.55085 0.22227,1.45223 0,2.00308 -0.222269,0.55084 -0.404133,0.10015 -0.404133,-1.00154 z m -150.869514,-5.656174 -1.89153,-1.650015 2.203386,1.341549 c 1.211862,0.737854 2.203385,1.480363 2.203385,1.650016 0,0.625633 -0.66942,0.268589 -2.515241,-1.34155 z m 150.068283,0.04755 c 0,-1.101693 0.181864,-1.552385 0.404133,-1.001539 0.22227,0.550847 0.22227,1.452232 0,2.003078 -0.222269,0.550847 -0.404133,0.100154 -0.404133,-1.001539 z m -157.568431,-5.278198 -2.403689,-2.065318 2.603997,1.72324 c 1.4322,0.947784 2.604001,1.878967 2.604001,2.069292 0,0.599761 -0.339298,0.390784 -2.804309,-1.727214 z M 58.721578,89.74074 c 0,-1.54237 0.164894,-2.17334 0.366427,-1.402155 0.201526,0.771185 0.201526,2.033124 0,2.804309 -0.201533,0.771185 -0.366427,0.140216 -0.366427,-1.402154 z m -162.435198,-2.874505 -2.40369,-2.065318 2.604,1.72324 c 1.4322,0.947784 2.604,1.878967 2.604,2.069292 0,0.599761 -0.3393,0.390784 -2.80431,-1.727214 z m -4.50898,-3.335037 c -0.99662,-1.270801 -0.96828,-1.29914 0.30252,-0.302513 1.33465,1.046705 1.75908,1.704668 1.09964,1.704668 -0.16638,0 -0.79735,-0.63097 -1.40216,-1.402155 z M 57.997377,78.122887 c 0.0032,-3.08474 0.148372,-4.248496 0.321823,-2.586133 0.173442,1.66237 0.170534,4.186248 -0.0064,5.608618 -0.177,1.422378 -0.318914,0.06226 -0.315356,-3.022485 z m -170.955417,1.94527 -2.77405,-2.461511 3.00462,2.155993 c 2.65518,1.905248 3.51914,2.76702 2.77405,2.76702 -0.12682,0 -1.4789,-1.107678 -3.00462,-2.461502 z m -10.58605,-7.983035 c -3.85593,-3.075326 -7.01077,-5.769306 -7.01077,-5.986624 0,-0.21731 3.24498,2.168068 7.21108,5.300842 6.25401,4.939975 7.87746,6.398865 7.01077,6.300105 -0.11017,-0.01258 -3.35516,-2.538998 -7.21108,-5.614323 z M 57.890661,70.110575 c 0.01635,-1.322031 0.195902,-1.765865 0.399046,-0.986291 0.203144,0.779574 0.189787,1.861236 -0.02973,2.403693 -0.219481,0.542458 -0.385689,-0.09537 -0.36936,-1.417402 z m -191.711091,-6.610157 -1.94244,-2.203386 2.20339,1.942433 c 2.0594,1.815502 2.57082,2.464339 1.94243,2.464339 -0.14351,0 -1.13504,-0.991524 -2.20338,-2.203386 z m 192.066373,0.200308 c -0.253653,-0.661016 -0.111948,-1.201847 0.314892,-1.201847 0.426848,0 0.776089,0.540831 0.776089,1.201847 0,0.661016 -0.141706,1.201847 -0.314892,1.201847 -0.173194,0 -0.522427,-0.540831 -0.776089,-1.201847 z m -197.264143,-4.60708 -2.35328,-2.604001 2.604,2.353288 c 1.4322,1.294309 2.604,2.46611 2.604,2.604002 0,0.618999 -0.66112,0.07403 -2.85472,-2.353289 z m 190.993812,2.056673 c 0.578385,-0.231452 1.269455,-0.202992 1.535696,0.06322 0.266241,0.266241 -0.20699,0.455612 -1.051616,0.420823 -0.933394,-0.03846 -1.123246,-0.228303 -0.48408,-0.484072 z m -3.204924,-0.801231 c 0.578384,-0.231452 1.269454,-0.202992 1.535695,0.06322 0.266242,0.266241 -0.20699,0.455612 -1.051615,0.420822 -0.933395,-0.03846 -1.123246,-0.228302 -0.48408,-0.484071 z m -194.186028,-6.86406 -3.16723,-3.405232 3.40524,3.167226 c 1.87288,1.741973 3.40523,3.274328 3.40523,3.405233 0,0.606195 -0.69775,-3.93e-4 -3.64324,-3.167227 z m -16.07664,-15.2257 c -14.63786,-14.996588 -28.2405,-31.812949 -33.53784,-41.4614071 -1.51982,-2.7681577 1.18713,0.7424689 5.11387,6.6321672 6.84967,10.2737629 16.60527,21.9000359 29.2252,34.8292399 6.56081,6.721592 11.74847,12.221083 11.52813,12.221083 -0.22033,0 -5.76855,-5.499491 -12.32936,-12.221083 z M 59.987924,49.131851 c 0.578385,-0.231452 1.269455,-0.202992 1.535696,0.06322 0.266241,0.266241 -0.20699,0.455612 -1.051616,0.420823 -0.933394,-0.03846 -1.123246,-0.228303 -0.48408,-0.484072 z M 56.782999,48.33062 c 0.578385,-0.231452 1.269455,-0.202992 1.535696,0.06322 0.266241,0.266241 -0.20699,0.455612 -1.051616,0.420822 -0.933394,-0.03846 -1.123246,-0.228302 -0.48408,-0.484071 z M 6.4556665,46.474255 C 5.7946508,46.047071 5.6143738,45.697566 6.055051,45.697566 c 0.4406771,0 1.3420622,0.349505 2.0030779,0.776689 0.6610157,0.427185 0.8412927,0.77669 0.4006156,0.77669 -0.4406772,0 -1.3420622,-0.349505 -2.003078,-0.77669 z m 44.7187145,0.253902 c 0.578385,-0.231451 1.269455,-0.202992 1.535696,0.06322 0.266241,0.266242 -0.20699,0.455613 -1.051616,0.420823 -0.933394,-0.03846 -1.123246,-0.228303 -0.48408,-0.484072 z M 43.712916,44.871793 C 42.702852,44.43775 42.554752,44.183191 43.3123,44.183191 c 0.661016,0 1.922955,0.309868 2.804309,0.688602 1.010065,0.434043 1.158164,0.688602 0.400616,0.688602 -0.661016,0 -1.922955,-0.309868 -2.804309,-0.688602 z M 66.611262,37.19333 c 0.03846,-0.933395 0.228302,-1.123246 0.484071,-0.48408 0.231452,0.578385 0.202992,1.269447 -0.06322,1.535696 -0.266241,0.266241 -0.455612,-0.20699 -0.420822,-1.051616 z M 18.87475,36.43067 c -2.003575,-0.965043 -2.070261,-1.076262 -0.400616,-0.668171 2.270289,0.554901 4.82221,1.855587 3.60554,1.837712 -0.440677,-0.0064 -1.882893,-0.532771 -3.204924,-1.169541 z m -7.611696,-2.776114 c -0.661016,-0.427184 -0.841293,-0.77669 -0.400616,-0.77669 0.440677,0 1.342062,0.349506 2.003078,0.77669 0.661016,0.427184 0.841293,0.776689 0.400615,0.776689 -0.440677,0 -1.342062,-0.349505 -2.003077,-0.776689 z m 56.326278,-3.204925 c 0,-2.423724 0.150207,-3.415248 0.333785,-2.203386 0.183586,1.211863 0.183586,3.19491 0,4.406772 -0.183578,1.211862 -0.333785,0.220339 -0.333785,-2.203386 z m -95.586606,1.602463 c -0.661016,-0.427185 -0.841293,-0.77669 -0.400615,-0.77669 0.440677,0 1.342062,0.349505 2.003078,0.77669 0.661015,0.427184 0.841292,0.776689 0.400615,0.776689 -0.440677,0 -1.342062,-0.349505 -2.003078,-0.776689 z m 35.2541717,0 C 6.595882,31.624909 6.415605,31.275404 6.8562821,31.275404 c 0.4406772,0 1.3420622,0.349505 2.0030779,0.77669 0.6610158,0.427184 0.8412928,0.776689 0.4006156,0.776689 -0.4406771,0 -1.3420622,-0.349505 -2.0030779,-0.776689 z M 3.2507419,30.449631 C 2.5897261,30.022447 2.4094491,29.672942 2.8501263,29.672942 c 0.4406771,0 1.3420622,0.349505 2.0030779,0.776689 0.6610157,0.427185 0.8412927,0.77669 0.4006156,0.77669 -0.4406772,0 -1.3420622,-0.349505 -2.0030779,-0.77669 z M -0.755414,28.847169 c -0.6610157,-0.427185 -0.8412927,-0.77669 -0.4006156,-0.77669 0.44067716,0 1.34206223,0.349505 2.00307794,0.77669 0.66101576,0.427184 0.84129276,0.776689 0.40061556,0.776689 -0.44067712,0 -1.34206218,-0.349505 -2.0030779,-0.776689 z m -4.0061559,-1.602463 c -0.6610157,-0.427184 -0.8412927,-0.776689 -0.4006155,-0.776689 0.4406771,0 1.3420622,0.349505 2.0030779,0.776689 0.6610157,0.427185 0.8412927,0.77669 0.4006156,0.77669 -0.4406772,0 -1.3420622,-0.349505 -2.003078,-0.77669 z M -45.824667,23.588712 c -2.974571,-1.526778 -5.408311,-2.95579 -5.408311,-3.175591 0,-0.358103 11.137378,4.975581 11.951701,5.723667 1.09578,1.006643 -1.8613,-0.144879 -6.54339,-2.548076 z m 35.454479,1.252301 c -0.661016,-0.427185 -0.841293,-0.77669 -0.400616,-0.77669 0.440678,0 1.3420626,0.349505 2.0030783,0.77669 0.6610157,0.427184 0.8412927,0.776689 0.4006156,0.776689 -0.4406772,0 -1.3420622,-0.349505 -2.0030779,-0.776689 z m -6.409849,-2.804309 c -1.101693,-0.629784 -1.642524,-1.145064 -1.201847,-1.145064 0.440677,0 1.702616,0.51528 2.804309,1.145064 1.101693,0.629783 1.642524,1.145063 1.201847,1.145063 -0.440677,0 -1.702617,-0.51528 -2.804309,-1.145063 z m -37.251577,-2.795136 c -0.280703,-0.454185 0.04094,-0.588504 0.753942,-0.314891 1.388069,0.53265 1.642036,1.106949 0.489521,1.106949 -0.41467,0 -0.974233,-0.356428 -1.243463,-0.792058 z m 28.438034,-1.21102 c -1.983047,-1.061864 -3.244987,-1.930671 -2.804309,-1.930671 0.440677,0 2.423724,0.868807 4.406771,1.930671 1.983047,1.061863 3.244986,1.93067 2.804309,1.93067 -0.440677,0 -2.423724,-0.868807 -4.406771,-1.93067 z m -37.056942,-3.26259 c -2.995355,-1.625009 -2.813026,-2.301825 0.200308,-0.743566 1.322031,0.68365 2.403693,1.414012 2.403693,1.623038 0,0.515592 -0.08609,0.486515 -2.604001,-0.879472 z M -70.91031,9.9740317 c -1.493511,-1.1965507 -1.483688,-1.2113414 0.247476,-0.3724203 0.991524,0.4804906 1.80277,1.0412076 1.80277,1.2460426 0,0.613118 -0.415526,0.436062 -2.050246,-0.8736223 z M 58.433488,7.4142342 C 57.43686,6.1434335 57.4652,6.1150939 58.736,7.1117214 c 1.334651,1.0467044 1.759087,1.7046674 1.099642,1.7046674 -0.166376,0 -0.797345,-0.6309695 -1.402154,-1.4021546 z M -53.035748,4.3569523 c -2.093216,-1.0896183 -3.805848,-2.160568 -3.805848,-2.379881 0,-0.219321 1.80277,0.514775 4.006156,1.6313147 2.203386,1.1165398 4.006156,2.2042752 4.006156,2.4171944 0,0.5299744 0.07211,0.5585703 -4.206464,-1.6686281 z m -27.489336,0.00849 c -1.493511,-1.1965507 -1.483688,-1.2113414 0.247476,-0.3724203 0.991524,0.4804903 1.80277,1.0412079 1.80277,1.2460427 0,0.6131181 -0.415526,0.4360621 -2.050246,-0.8736224 z m 132.225233,-4.56290754 -4.782308,-5.00769496 5.007694,4.78230862 c 4.651724,4.44235428 5.374339,5.23308128 4.782309,5.23308128 -0.123967,0 -2.377429,-2.2534627 -5.007695,-5.00769494 z M -85.900544,1.1758081 c -1.644663,-1.11758135 -2.990299,-2.2043553 -2.990299,-2.4150631 0,-0.2107078 1.442216,0.57131791 3.204925,1.7378224 2.798821,1.8521661 3.744778,2.709203 2.990299,2.709203 -0.118038,0 -1.560254,-0.914381 -3.204925,-2.0319623 z m 24.051253,-1.63124265 c -2.995354,-1.62500905 -2.813026,-2.30182505 0.200308,-0.74356655 1.322031,0.68365048 2.403694,1.41401278 2.403694,1.62303797 0,0.51559228 -0.08609,0.4865156 -2.604002,-0.87947142 z m -29.54745,-2.54633675 c -0.996628,-1.2708008 -0.968288,-1.2991403 0.302512,-0.3025129 0.771186,0.6048094 1.402155,1.2357789 1.402155,1.4021546 0,0.6594453 -0.657963,0.2350091 -1.704667,-1.0996417 z m 23.938832,-0.658588 c -2.995355,-1.6250091 -2.813026,-2.3018251 0.200308,-0.7435666 1.322031,0.6836505 2.403693,1.4140128 2.403693,1.623038 0,0.5155923 -0.08609,0.4865156 -2.604001,-0.8794714 z m -30.273847,-4.9500304 -4.379404,-4.6070793 4.607082,4.3794014 c 4.280121,4.068604 4.974115,4.8347573 4.379402,4.8347573 -0.125225,0 -2.198411,-2.0731858 -4.60708,-4.6070794 z m -99.325294,2.2033858 c -0.47169,-0.8813543 -0.67734,-1.6024624 -0.457,-1.6024624 0.22034,0 0.78654,0.7211081 1.25823,1.6024624 0.47169,0.8813543 0.67734,1.6024624 0.457,1.6024624 -0.22034,0 -0.78654,-0.7211081 -1.25823,-1.6024624 z m 124.544278,-0.4448196 c -1.493511,-1.1965506 -1.483688,-1.2113413 0.247476,-0.3724202 0.991524,0.4804903 1.80277,1.0412079 1.80277,1.2460427 0,0.6131181 -0.415526,0.4360621 -2.050246,-0.8736225 z m 116.149563,-0.5567194 -1.526337,-1.8027702 1.80277,1.5263374 c 0.991523,0.839482 1.80277,1.6507286 1.80277,1.8027702 0,0.6411853 -0.644823,0.1678179 -2.079203,-1.5263374 z M -79.027992,-10.795692 c -2.27552,-1.532418 -4.3815,-3.181328 -4.679951,-3.664246 -0.467702,-0.756763 6.640772,3.921946 8.798584,5.7911225 1.736981,1.5046321 -0.249167,0.478976 -4.118633,-2.1268765 z m 118.231931,-0.218391 c -0.996627,-1.270801 -0.968287,-1.299141 0.302513,-0.302513 1.334651,1.046704 1.759087,1.7046673 1.099642,1.7046673 -0.166376,0 -0.797345,-0.6309693 -1.402155,-1.4021543 z m -241.109309,-4.287541 c -1.35722,-2.688659 -2.33547,-5.020675 -2.17388,-5.182267 0.16159,-0.161584 1.44377,2.03822 2.84929,4.888464 1.40551,2.850252 2.38376,5.182267 2.17388,5.182267 -0.20988,0 -1.49206,-2.199812 -2.84929,-4.888464 z m 237.904385,1.883847 c -0.996628,-1.270801 -0.968288,-1.29914 0.302513,-0.302513 1.33465,1.046705 1.759087,1.704668 1.099641,1.704668 -0.166375,0 -0.797345,-0.63097 -1.402154,-1.402155 z M -88.35167,-18.377606 c -3.025641,-3.349035 -5.358098,-7.29787 -5.328965,-9.021928 0.0097,-0.572728 0.694916,0.450284 1.522756,2.273374 0.82784,1.823081 2.844924,4.797652 4.482408,6.610157 1.637492,1.812497 2.79697,3.295456 2.576631,3.295456 -0.220339,0 -1.684108,-1.420679 -3.25283,-3.157059 z m -16.60052,0.68474 c -0.49189,-0.919092 -0.74342,-1.822 -0.55896,-2.006459 0.18446,-0.18446 0.74677,0.567528 1.24958,1.671079 1.10416,2.423356 0.56655,2.684429 -0.69062,0.33538 z m 134.541355,-0.532298 c -0.996627,-1.270801 -0.968287,-1.29914 0.302513,-0.302513 0.771185,0.604809 1.402155,1.235779 1.402155,1.402155 0,0.659445 -0.657963,0.235009 -1.704668,-1.099642 z m -136.408725,-3.836824 c -0.27478,-0.71606 -0.46861,-1.903413 -0.43073,-2.638558 0.0379,-0.735138 0.38651,-0.273084 0.77474,1.026793 0.75529,2.528894 0.48817,3.780394 -0.34401,1.611765 z M 23.980547,-22.23132 c -0.996627,-1.270801 -0.968288,-1.29914 0.302513,-0.302513 0.771185,0.604809 1.402155,1.235779 1.402155,1.402155 0,0.659445 -0.657963,0.235009 -1.704668,-1.099642 z m -230.151457,-2.586975 c -1.80808,-4.518848 -1.52946,-5.191273 0.37366,-0.90177 0.85944,1.937113 1.41993,3.664703 1.24555,3.839083 -0.17439,0.174388 -0.90303,-1.147403 -1.61921,-2.937313 z m 98.27968,-5.225029 c 0.006,-2.203386 0.16162,-3.009673 0.34579,-1.791754 0.18417,1.21792 0.17924,3.02069 -0.0109,4.006156 -0.19018,0.985467 -0.34086,-0.01106 -0.33485,-2.214402 z m 13.455026,-0.06674 c 0.03846,-0.933394 0.228303,-1.123246 0.484072,-0.48408 0.231452,0.578385 0.202992,1.269447 -0.06322,1.535696 -0.266249,0.266241 -0.455612,-0.20699 -0.420823,-1.051616 z m 0.801231,-3.204925 c 0.03846,-0.933394 0.228303,-1.123246 0.484072,-0.484079 0.231452,0.578384 0.202992,1.269446 -0.06322,1.535695 -0.266249,0.266241 -0.455612,-0.20699 -0.420823,-1.051616 z m -13.557677,-2.737566 c 0,-1.101693 0.18186,-1.552386 0.40413,-1.001539 0.22227,0.550846 0.22227,1.452231 0,2.003078 -0.22227,0.550846 -0.40413,0.100154 -0.40413,-1.001539 z m 14.295651,0.220298 c 0,-2.110082 8.502057,-13.308779 15.759673,-20.758261 4.891724,-5.02104 5.598346,-5.621863 1.864641,-1.585458 -8.094158,8.750367 -11.387282,12.873383 -14.772956,18.495847 -1.56825,2.604337 -2.851358,4.335878 -2.851358,3.847872 z M -210.61473,-38.1224 c 0.0385,-0.933394 0.22831,-1.123246 0.48408,-0.48408 0.23145,0.578385 0.20299,1.269447 -0.0633,1.535696 -0.26624,0.266241 -0.45561,-0.20699 -0.42082,-1.051616 z m 104.12134,-0.734464 c 0,-0.440678 0.34951,-1.342063 0.77669,-2.003078 0.42719,-0.661016 0.77669,-0.841293 0.77669,-0.400616 0,0.440677 -0.3495,1.342062 -0.77669,2.003078 -0.42718,0.661016 -0.77669,0.841293 -0.77669,0.400616 z m -104.79993,-3.605541 c 0,-1.54237 0.16489,-2.173339 0.36642,-1.402154 0.20153,0.771185 0.20153,2.033124 0,2.804309 -0.20153,0.771185 -0.36642,0.140215 -0.36642,-1.402155 z m -0.74702,-7.211081 c 0,-2.423724 0.1502,-3.415248 0.33378,-2.203385 0.18358,1.211862 0.18358,3.194909 0,4.406771 -0.18358,1.211862 -0.33378,0.220339 -0.33378,-2.203386 z m 109.52857,2.403694 c 0.47168,-0.881354 1.03789,-1.602462 1.25823,-1.602462 0.22034,0 0.0147,0.721108 -0.457,1.602462 -0.47169,0.881354 -1.03789,1.602462 -1.25823,1.602462 -0.22034,0 -0.0147,-0.721108 0.457,-1.602462 z m 1.60246,-2.706202 c 0,-0.166381 0.63097,-0.79735 1.402154,-1.402155 1.270801,-0.996628 1.29914,-0.968289 0.302513,0.302509 -1.046707,1.334649 -1.704667,1.759086 -1.704667,1.099646 z m 2.403693,-3.204925 c 0,-0.166381 0.63097,-0.79735 1.402155,-1.402155 1.2708,-0.996628 1.29914,-0.968289 0.302513,0.302509 -1.046705,1.334649 -1.704668,1.759086 -1.704668,1.099646 z M -212.77579,-64.496266 c 0.002,-5.288126 0.13125,-7.347182 0.28816,-4.575681 0.1569,2.771502 0.15561,7.09815 -0.003,9.614775 -0.15849,2.516624 -0.28687,0.249032 -0.28528,-5.039094 z m 118.276329,6.40985 c 1.03499,-1.101693 2.062073,-2.003078 2.282411,-2.003078 0.220339,0 -0.446189,0.901385 -1.48118,2.003078 -1.03499,1.101693 -2.062072,2.003078 -2.282411,2.003078 -0.220339,0 0.44619,-0.901385 1.48118,-2.003078 z m 8.700497,-9.318611 c 4.485933,-4.631617 6.337899,-7.057964 5.608618,-7.348133 -0.690765,-0.274845 -0.739953,-0.456341 -0.13455,-0.496472 2.488568,-0.164961 1.222566,1.783972 -5.201321,8.007146 l -6.970166,6.752376 z m 19.281949,0.705375 c 1.068345,-1.211862 2.510562,-2.174921 3.204924,-2.140131 1.081078,0.05416 1.089795,0.126387 0.06065,0.502598 -0.661016,0.241638 -2.103232,1.204696 -3.204925,2.140131 l -2.003086,1.700788 z M -212.11891,-77.315965 c -0.0211,-1.762709 0.46682,-4.647141 1.08428,-6.40985 0.76225,-2.17603 0.97105,-2.433254 0.6504,-0.801231 -0.25975,1.322032 -0.74768,4.206464 -1.08429,6.40985 -0.59166,3.872971 -0.61328,3.899608 -0.65039,0.801231 z m 2.24216,-10.529944 c 0,-0.429896 0.56072,-1.481512 1.24605,-2.336924 1.17491,-1.466498 1.19158,-1.440932 0.29208,0.447785 -1.16804,2.452594 -1.53813,2.907138 -1.53813,1.889139 z m 2.40369,-4.543546 c 0,-0.137891 1.1718,-1.309692 2.60401,-2.604001 l 2.604,-2.353289 -2.35329,2.604002 c -2.1936,2.427293 -2.85472,2.972288 -2.85472,2.353288 z m 58.33965,-2.700313 c 0.57838,-0.231452 1.26945,-0.202987 1.53569,0.06326 0.26625,0.266243 -0.20699,0.455613 -1.05161,0.420823 -0.9334,-0.03844 -1.12325,-0.228304 -0.48408,-0.484078 z m -7.21108,-1.602462 c 0.57839,-0.231453 1.26945,-0.202987 1.53569,0.06326 0.26624,0.266243 -0.20698,0.455613 -1.05161,0.420823 -0.93339,-0.03844 -1.12325,-0.228304 -0.48408,-0.484078 z m -12.01847,-2.403694 c 0.57839,-0.231452 1.26945,-0.202987 1.53569,0.06326 0.26625,0.266243 -0.20698,0.455613 -1.05161,0.420823 -0.93339,-0.03844 -1.12325,-0.228304 -0.48408,-0.484078 z m -24.08701,-1.585766 c 0.55084,-0.22228 1.45223,-0.22228 2.00308,0 0.55084,0.22227 0.10015,0.40413 -1.00154,0.40413 -1.1017,0 -1.55239,-0.18186 -1.00154,-0.40413 z m 12.43433,-0.0246 c 0.77957,-0.20315 1.86123,-0.18979 2.40369,0.0297 0.54246,0.21947 -0.0954,0.38569 -1.4174,0.36936 -1.32203,-0.0163 -1.76586,-0.1959 -0.98629,-0.39905 z"
       id="path4548" />
    <path
       style="fill:#243b80;stroke-width:0.801231"
       d="m 24.683676,152.50737 c 0.550846,-0.22227 1.452231,-0.22227 2.003078,0 0.550846,0.22226 0.100153,0.40413 -1.001539,0.40413 -1.101693,0 -1.552386,-0.18187 -1.001539,-0.40413 z m 12.068544,-0.0167 c 0.578385,-0.23145 1.269455,-0.20299 1.535696,0.0632 0.266241,0.26624 -0.20699,0.45561 -1.051616,0.42082 -0.933394,-0.0385 -1.123246,-0.2283 -0.48408,-0.48407 z M 0.84704834,145.02569 C 0.18603263,144.59851 0.00575561,144.249 0.44643276,144.249 c 0.44067714,0 1.34206224,0.34951 2.00307794,0.77669 0.6610157,0.42719 0.8412927,0.77669 0.4006156,0.77669 -0.4406772,0 -1.3420622,-0.3495 -2.00307796,-0.77669 z M 50.523381,144.72318 c 0,-0.16638 0.630969,-0.79735 1.402154,-1.40215 1.270801,-0.99663 1.299141,-0.96829 0.302513,0.30251 -1.046704,1.33465 -1.704667,1.75908 -1.704667,1.09964 z m 3.204925,-4.50487 c 0.471684,-0.88136 1.03789,-1.60247 1.258229,-1.60247 0.220339,0 0.01466,0.72111 -0.456998,1.60247 -0.471685,0.88135 -1.037891,1.60246 -1.25823,1.60246 -0.220338,0 -0.01466,-0.72111 0.456999,-1.60246 z M -16.780037,137.414 c -1.101693,-0.62979 -1.642524,-1.14507 -1.201847,-1.14507 0.440677,0 1.702616,0.51528 2.804309,1.14507 1.101693,0.62978 1.642524,1.14506 1.201847,1.14506 -0.440677,0 -1.702617,-0.51528 -2.804309,-1.14506 z m 72.167588,0 c 0,-0.44068 0.51528,-1.70262 1.145064,-2.80431 0.629783,-1.1017 1.145063,-1.64253 1.145063,-1.20185 0,0.44068 -0.51528,1.70262 -1.145063,2.80431 -0.629784,1.10169 -1.145064,1.64252 -1.145064,1.20185 z m -76.173744,-2.00308 c -0.722142,-0.46669 -0.820966,-0.78159 -0.247597,-0.78897 0.524839,-0.006 1.177089,0.34829 1.449443,0.78897 0.614785,0.99475 0.337415,0.99475 -1.201846,0 z m 79.98718,-9.67795 c 0.642339,-2.62932 1.303731,-4.64473 1.469762,-4.4787 0.463873,0.46388 -1.384968,8.48506 -2.050583,8.89644 -0.322888,0.19955 -0.06153,-1.78843 0.580821,-4.41774 z m -100.819191,-0.73806 c -0.722141,-0.46668 -0.820965,-0.78159 -0.247596,-0.78896 0.524838,-0.006 1.177089,0.34829 1.449443,0.78896 0.614785,0.99476 0.337415,0.99476 -1.201847,0 z m -4.206463,-2.06074 c -2.995355,-1.62501 -2.813027,-2.30183 0.200307,-0.74357 1.322032,0.68365 2.403694,1.41402 2.403694,1.62304 0,0.51559 -0.08609,0.48652 -2.604001,-0.87947 z m -7.211081,-4.00616 c -2.995355,-1.62501 -2.813026,-2.30182 0.200308,-0.74356 1.322031,0.68365 2.403693,1.41401 2.403693,1.62304 0,0.51559 -0.08609,0.48651 -2.604001,-0.87948 z m 113.453861,-5.15033 c 0,-3.74576 0.13802,-5.27811 0.306711,-3.40524 0.168684,1.87288 0.168684,4.93759 0,6.81047 -0.168691,1.87288 -0.306711,0.34052 -0.306711,-3.40523 z m -129.678792,-4.48355 c -3.966094,-2.45068 -7.571635,-4.85418 -8.012312,-5.3411 -0.440677,-0.48694 0.178907,-0.2775 1.376852,0.4654 1.197953,0.74289 4.893631,2.99937 8.212619,5.01438 5.095839,3.09375 6.85809,4.40195 5.834229,4.33098 -0.110169,-0.008 -3.445294,-2.01898 -7.411388,-4.46966 z m 129.103933,-5.20356 c -0.278484,-1.39242 -0.464177,-3.47812 -0.412666,-4.634902 0.05152,-1.156777 0.417041,-0.155198 0.812272,2.225732 0.7706,4.64217 0.442552,6.61993 -0.399606,2.40917 z m -147.73791,-6.748558 c -4.954677,-3.310815 -9.008498,-6.203316 -9.008498,-6.427773 0,-0.397042 16.46764,10.361271 17.987639,11.751331 1.944003,1.77782 -0.679997,0.2221 -8.979141,-5.323558 z M 58.721578,94.548127 c 0,-1.54237 0.164894,-2.17334 0.366427,-1.402155 0.201526,0.771185 0.201526,2.033125 0,2.80431 -0.201533,0.771185 -0.366427,0.140215 -0.366427,-1.402155 z m -0.86061,-4.807387 c 0,-1.101693 0.181863,-1.552386 0.404133,-1.001539 0.222269,0.550846 0.222269,1.452231 0,2.003078 -0.22227,0.550846 -0.404133,0.100154 -0.404133,-1.001539 z m -158.369658,-1.272043 -2.4037,-2.065317 2.604,1.723239 c 1.432204,0.947785 2.604004,1.878968 2.604004,2.069292 0,0.599762 -0.339297,0.390785 -2.804304,-1.727214 z m -10.61632,-7.578461 c -4.07626,-3.087585 -7.41139,-5.791371 -7.41139,-6.008409 0,-0.217037 3.42527,2.179974 7.6117,5.326697 6.61914,4.975253 8.26796,6.379363 7.41139,6.311395 -0.11017,-0.0087 -3.53543,-2.542099 -7.6117,-5.629683 z M 57.797719,84.46597 c 0.03846,-0.933394 0.228302,-1.123246 0.484071,-0.484079 0.231452,0.578384 0.202992,1.269454 -0.06322,1.535695 -0.266241,0.266241 -0.455612,-0.20699 -0.420822,-1.051616 z m -0.715227,-8.746776 c -0.02011,-3.966095 0.2319,-7.895477 0.560108,-8.731954 0.328201,-0.836477 0.462976,1.867678 0.299501,6.009234 -0.402611,10.199898 -0.814997,11.506073 -0.859609,2.72272 z M -127.75055,67.962659 c -28.32587,-23.058793 -49.51836,-45.323061 -63.92563,-67.15858215 -5.42457,-8.22141725 -9.81365,-16.02462385 -9.01341,-16.02462385 0.22034,0 1.29924,1.773333 2.39754,3.940735 3.2609,6.4350727 14.22357,22.321004 21.33254,30.912822 9.54462,11.535518 28.82986,30.453652 43.19972,42.377398 13.07855,10.852244 14.99685,12.516962 14.39355,12.490826 -0.2046,-0.0089 -3.97754,-2.951223 -8.38431,-6.538575 z M 62.141233,48.877949 c 0.272354,-0.440677 0.654189,-0.801231 0.84852,-0.801231 0.19433,0 0.353327,0.360554 0.353327,0.801231 0,0.440677 -0.381835,0.801231 -0.84852,0.801231 -0.466685,0 -0.625682,-0.360554 -0.353327,-0.801231 z m -2.95454,-0.547329 c 0.578385,-0.231452 1.269455,-0.202992 1.535696,0.06322 0.266241,0.266241 -0.20699,0.455612 -1.051616,0.420822 -0.933394,-0.03846 -1.123246,-0.228302 -0.48408,-0.484071 z m -3.204925,-0.801232 c 0.578385,-0.231451 1.269455,-0.202991 1.535696,0.06322 0.266241,0.266241 -0.20699,0.455612 -1.051616,0.420822 -0.933394,-0.03846 -1.123246,-0.228303 -0.48408,-0.484072 z m 8.231128,-3.458826 c -0.0242,-0.661016 0.305462,-1.742678 0.732646,-2.403694 0.94651,-1.464627 0.94651,-0.199579 0,2.003078 -0.454042,1.056616 -0.703601,1.193081 -0.732646,0.400616 z m 1.934493,-14.021546 c 0,-4.102272 0.264895,-7.042414 0.588656,-6.533648 0.323762,0.508766 0.588649,3.448907 0.588649,6.533648 0,3.08474 -0.264887,6.024882 -0.588649,6.533647 -0.323761,0.508766 -0.588656,-2.431376 -0.588656,-6.533647 z m -53.281873,3.60554 c -0.661016,-0.427184 -0.841293,-0.77669 -0.400616,-0.77669 0.440677,0 1.342063,0.349506 2.003078,0.77669 0.661016,0.427184 0.841293,0.776689 0.400616,0.776689 -0.440677,0 -1.342062,-0.349505 -2.003078,-0.776689 z M -12.773882,23.23855 c -0.661015,-0.427184 -0.841292,-0.776689 -0.400615,-0.776689 0.440677,0 1.342062,0.349505 2.003078,0.776689 0.661015,0.427185 0.841293,0.77669 0.400615,0.77669 -0.440677,0 -1.342062,-0.349505 -2.003078,-0.77669 z m 78.087093,-2.456999 c -0.29047,-0.469994 -0.356292,-1.026377 -0.146265,-1.236404 0.210019,-0.210027 0.595363,0.174516 0.856316,0.854537 0.541777,1.411858 0.08004,1.660199 -0.710051,0.381867 z m -2.214186,-5.16476 c -0.732862,-1.536834 -1.167298,-2.794246 -0.965404,-2.794246 0.548251,0 2.980516,4.905866 2.613985,5.272398 -0.173851,0.173851 -0.915711,-0.941311 -1.648581,-2.478152 z m -93.499992,-0.390553 c -0.661016,-0.427184 -0.841293,-0.776689 -0.400616,-0.776689 0.440677,0 1.342062,0.349505 2.003078,0.776689 0.661016,0.427185 0.841293,0.77669 0.400616,0.77669 -0.440678,0 -1.342063,-0.349505 -2.003078,-0.77669 z m -3.204925,-1.602462 c -0.722142,-0.466685 -0.820965,-0.781593 -0.247596,-0.788964 0.524838,-0.0064 1.177088,0.348287 1.449443,0.788964 0.614784,0.994753 0.337414,0.994753 -1.201847,0 z M -41.618204,9.61762 c -0.722141,-0.4666851 -0.820965,-0.781593 -0.247596,-0.7889643 0.524838,-0.00641 1.177089,0.3482872 1.449443,0.7889643 0.614785,0.994753 0.337415,0.994753 -1.201847,0 z M 58.433488,8.2154654 C 57.43686,6.9446647 57.4652,6.9163251 58.736,7.9129526 c 0.771185,0.6048094 1.402155,1.2357789 1.402155,1.4021546 0,0.6594453 -0.657963,0.2350091 -1.704667,-1.0996418 z M -47.42713,6.7556462 c -2.995354,-1.625009 -2.813026,-2.301825 0.200308,-0.7435666 1.322032,0.6836506 2.403694,1.4140129 2.403694,1.6230381 0,0.5155922 -0.08609,0.4865155 -2.604002,-0.8794715 z M 55.270123,4.2093094 53.32769,2.0059236 55.531076,3.9483565 c 1.211862,1.0683456 2.203385,2.0598692 2.203385,2.2033857 0,0.6283897 -0.648837,0.1169638 -2.464338,-1.9424328 z m -4.422251,-4.40677154 -1.526338,-1.80277016 1.80277,1.52633738 c 1.694156,1.43438011 2.167523,2.07920302 1.526338,2.07920302 -0.152042,0 -0.963289,-0.81124664 -1.80277,-1.80277024 z M 44.696555,-5.4595641 c -1.86303,-1.682297 -5.730934,-4.8053439 -8.595335,-6.9401119 -6.033071,-4.496302 -7.847426,-6.158047 -4.406772,-4.036114 2.782324,1.715916 17.226471,13.2040893 17.226471,13.7010931 0,0.8150043 -1.064829,0.1281569 -4.224364,-2.7248672 z M -98.607822,-8.6103897 c -0.996627,-1.2708008 -0.968288,-1.2991403 0.302513,-0.3025129 0.771185,0.6048094 1.402155,1.235779 1.402155,1.4021546 0,0.6594453 -0.657964,0.2350091 -1.704668,-1.0996417 z m 16.024624,-5.6086183 c -0.996628,-1.270801 -0.968288,-1.29914 0.302512,-0.302513 0.771185,0.604809 1.402155,1.235779 1.402155,1.402155 0,0.659445 -0.657963,0.235009 -1.704667,-1.099642 z m -4.748313,-4.006156 -2.761179,-3.004617 3.004617,2.761179 c 2.796634,2.570037 3.373015,3.248055 2.761179,3.248055 -0.133894,0 -1.485971,-1.352078 -3.004617,-3.004617 z m -115.591169,-0.638165 c -1.88223,-3.947081 -1.61744,-4.618729 0.35035,-0.888693 0.89374,1.694131 1.48326,3.221951 1.31004,3.395177 -0.17322,0.173218 -0.9204,-0.954699 -1.66039,-2.506484 z m 229.306921,-0.964297 c -1.017171,-1.297002 -0.979465,-1.314004 0.50282,-0.226725 0.881355,0.64649 1.752694,1.277459 1.936312,1.402155 0.18361,0.124695 -0.04263,0.226724 -0.502821,0.226724 -0.460163,0 -1.331502,-0.630969 -1.936311,-1.402154 z M 15.152134,-27.06522 C 2.1847839,-35.657599 2.4437819,-35.474526 4.8532042,-34.345078 c 4.6853916,2.196342 21.6390108,13.728808 19.8304718,13.4894 -0.11017,-0.01458 -4.39936,-2.808884 -9.531542,-6.209542 z M -93.54203,-30.043324 c 0.01635,-1.322032 0.195901,-1.765866 0.399045,-0.986292 0.203145,0.779574 0.189788,1.861236 -0.02972,2.403694 -0.219482,0.542457 -0.385689,-0.09537 -0.36936,-1.417402 z m -114.669,-1.737238 c -0.0348,-0.514807 -0.27076,-1.596469 -0.52437,-2.403693 -0.43831,-1.39512 -0.4157,-1.396867 0.45732,-0.03533 0.50514,0.787787 0.74111,1.869449 0.52437,2.403694 -0.28442,0.701069 -0.41167,0.710908 -0.45732,0.03533 z M 0.44643276,-36.052558 c -0.2723545,-0.440677 -0.13463088,-0.801231 0.30604627,-0.801231 0.44067717,0 1.02406157,0.360554 1.29641607,0.801231 0.2723545,0.440677 0.1346309,0.801231 -0.3060463,0.801231 -0.4406771,0 -1.02406154,-0.360554 -1.29641604,-0.801231 z M -209.81349,-37.321172 c 0.0384,-0.933394 0.2283,-1.123246 0.48407,-0.484079 0.23146,0.578384 0.20299,1.269446 -0.0633,1.535695 -0.26625,0.266241 -0.45562,-0.20699 -0.42083,-1.051616 z m 200.2445331,-4.413293 c -4.6271101,-2.623853 -11.7287501,-6.464309 -15.7814261,-8.534342 -4.052667,-2.070035 -7.226263,-3.905926 -7.052436,-4.079758 0.604545,-0.604542 31.647405,16.200723 31.647405,17.132539 0,0.50504 0.47174889,0.746892 -8.8135429,-4.518439 z m -201.0457731,1.208369 c 0.0385,-0.933395 0.22831,-1.123246 0.48408,-0.48408 0.23145,0.578384 0.20299,1.269446 -0.0633,1.535696 -0.26624,0.266241 -0.45561,-0.206991 -0.42082,-1.051616 z m -0.70828,-6.343083 c 0.0163,-1.322032 0.1959,-1.765863 0.39904,-0.98629 0.20315,0.779571 0.18979,1.861233 -0.0297,2.403693 -0.21948,0.542459 -0.38569,-0.09537 -0.36936,-1.417403 z m 127.64017,-2.003078 c 0.797617,-0.881355 1.630489,-1.602463 1.850828,-1.602463 0.220338,0 -0.251979,0.721108 -1.049597,1.602463 -0.797618,0.881354 -1.630489,1.602462 -1.850828,1.602462 -0.220339,0 0.251979,-0.721108 1.049597,-1.602462 z m 3.60554,-4.226517 c 0,-0.121199 2.794294,-2.915492 6.209542,-6.209542 l 6.209541,-5.989181 -5.989179,6.209542 c -5.562619,5.767285 -6.429904,6.575123 -6.429904,5.989181 z M -211.96658,-64.09565 c 0,-5.949142 0.12613,-8.382882 0.28029,-5.408311 0.15416,2.974571 0.15416,7.842051 0,10.816621 -0.15416,2.974571 -0.28029,0.540831 -0.28029,-5.40831 z m 172.367367,6.75062 c -3.075991,-1.509455 -5.138897,-2.744464 -4.584228,-2.744464 1.171736,0 10.577549,4.641337 10.577549,5.219536 0,0.501325 0.454554,0.689045 -5.993321,-2.475072 z m -54.900248,-1.444511 c 0,-0.16638 0.63097,-0.79735 1.402155,-1.402154 1.2708,-0.996628 1.29914,-0.968289 0.302512,0.302509 -1.046704,1.334649 -1.704667,1.759086 -1.704667,1.099645 z m 39.03688,-5.443673 c -4.309326,-1.808491 -7.697444,-3.425858 -7.529153,-3.59415 0.372083,-0.372081 14.253638,5.292713 15.324235,6.253526 1.181391,1.060245 0.575997,0.853706 -7.795082,-2.659376 z m -29.455589,-4.870131 c 1.964626,-2.093217 3.677258,-3.805848 3.805848,-3.805848 0.601628,0 -0.03445,0.719367 -3.572057,4.039641 l -3.805848,3.572055 z m -3.021211,-7.558105 c -3.222447,-1.112807 -5.717057,-2.165228 -5.543574,-2.338713 0.339642,-0.339646 11.796767,3.413775 12.467381,4.084387 0.737662,0.737663 -1.004679,0.298373 -6.923807,-1.745674 z m -123.476579,-3.124978 c 0.0385,-0.933388 0.22831,-1.123246 0.48408,-0.484077 0.23145,0.578389 0.20299,1.269451 -0.0633,1.535693 -0.26624,0.266242 -0.45561,-0.206985 -0.42082,-1.051616 z m 106.50049,-2.443027 c -9.52548,-3.1102 -18.88805,-5.724752 -31.48713,-8.792968 -4.75863,-1.158852 -8.48788,-2.271175 -8.28722,-2.471828 0.83016,-0.830167 48.648646,12.37641 50.123592,13.843205 0.811175,0.806696 -2.535199,-0.02702 -10.349242,-2.578409 z m -102.55759,-9.410565 c 0,-0.16638 0.63097,-0.79735 1.40216,-1.402154 1.2708,-0.996629 1.29914,-0.968289 0.30251,0.302509 -1.04671,1.334649 -1.70467,1.759086 -1.70467,1.099645 z m 58.33965,-2.648517 c 0.57838,-0.231452 1.26945,-0.202987 1.53569,0.06326 0.26625,0.266243 -0.20699,0.455613 -1.05161,0.420823 -0.9334,-0.03844 -1.12325,-0.228303 -0.48408,-0.484077 z m -54.78813,-0.967712 c 0.57164,-0.924938 3.65956,-2.79043 3.65956,-2.210836 0,0.185161 -0.94577,0.956354 -2.10172,1.713762 -1.15595,0.757408 -1.85698,0.981091 -1.55784,0.497074 z m 38.91374,-2.126511 c -4.62711,-0.991801 -10.03542,-1.876066 -12.01847,-1.965035 -1.98305,-0.08897 -4.50693,-0.457193 -5.60862,-0.818275 -3.72323,-1.2203 7.33082,0.0829 18.42832,2.172499 5.94914,1.120217 10.96685,2.174716 11.15046,2.343331 0.72053,0.661666 -3.92092,-0.01116 -11.95169,-1.73252 z m -33.65171,-1.165832 c 0.66101,-0.427181 1.5624,-0.776692 2.00307,-0.776692 0.44068,0 0.2604,0.349511 -0.40061,0.776692 -0.66102,0.427182 -1.5624,0.776693 -2.00308,0.776693 -0.44068,0 -0.2604,-0.349511 0.40062,-0.776693 z m 3.27169,-1.088971 c 0.18362,-0.158257 2.13662,-0.496077 4.34,-0.750717 2.57736,-0.29786 3.43464,-0.21532 2.4037,0.23142 -1.53077,0.663339 -7.43865,1.118273 -6.7437,0.519297 z"
       id="path4546" />
    <path
       style="fill:#21387e;stroke-width:0.801231"
       d="M 25.685215,152.53328 C 6.3946608,148.8069 -36.771036,128.70126 -70.462526,107.74974 -113.49019,80.992401 -153.72322,47.704385 -176.96339,19.63301 c -13.7491,-16.6072873 -25.44123,-36.42381 -30.53265,-51.748591 -3.32518,-10.008515 -4.21848,-18.366267 -3.80239,-35.57511 0.38989,-16.12489 1.57957,-21.045552 6.24098,-25.813355 3.98759,-4.078599 11.46763,-6.712294 19.21764,-6.766474 3.57439,-0.025 15.39694,1.699161 25.21166,3.676751 5.2732,1.06251 9.87027,1.757167 10.21569,1.543683 0.34543,-0.213484 0.62805,-0.01036 0.62805,0.451389 0,0.461748 0.81124,0.824153 1.80277,0.805345 1.93299,-0.03667 14.30738,3.146065 33.4514,8.603809 5.79436,1.651907 33.744684,10.641323 34.208412,11.002152 0.08585,0.0668 -2.735787,3.176014 -6.270299,6.909367 -8.537318,9.017586 -15.612883,18.432386 -18.649833,24.815616 -2.16783,4.556482 -2.47782,6.061482 -2.47782,12.030334 0,6.08451 0.28318,7.398081 2.61845,12.146129 4.64552,9.4452494 12.603993,16.1033204 33.820787,28.294534 35.685643,20.505045 83.77976,40.823619 120.633013,50.964457 9.27034,2.550896 9.296781,2.565118 8.640084,4.646284 -1.269855,4.024376 -0.590692,21.445642 1.346437,34.53742 1.159742,7.8379 1.153757,20.18433 -0.01226,25.23878 -0.508293,2.20338 -1.047025,4.60198 -1.197191,5.33021 -0.506691,2.45725 -5.192203,11.25204 -7.64361,14.34719 -3.537003,4.46584 -9.674409,7.21011 -16.910801,7.56145 -3.237783,0.15721 -6.788255,0.11172 -7.889947,-0.1011 z M 54.397109,46.851419 C 22.011209,37.975988 -18.880906,21.331748 -52.640533,3.2840877 -83.286728,-13.099151 -92.896999,-21.123874 -92.896999,-30.330662 c 0,-6.425529 7.157094,-16.744347 21.051107,-30.350662 l 7.558815,-7.402293 7.515717,3.259745 c 4.133648,1.792859 8.152479,3.307711 8.930747,3.366336 0.77826,0.05863 1.415022,0.411695 1.415022,0.784602 0,0.372907 0.329763,0.47421 0.732798,0.225118 0.403036,-0.249092 0.853728,-0.180231 1.001539,0.153022 0.342118,0.771362 9.978333,5.315857 10.738156,5.064179 0.312761,-0.103597 0.789245,0.138337 1.05886,0.537633 0.269606,0.399295 4.997118,3.097998 10.505582,5.997118 5.508465,2.89912 12.358991,6.617022 15.2233926,8.262005 2.8644015,1.644984 5.6586952,3.003263 6.20954161,3.018398 0.55084643,0.01514 1.00153896,0.311062 1.00153896,0.657619 0,0.346557 1.25926303,1.227662 2.79835593,1.958009 1.539093,0.730346 7.8925599,4.713354 14.1188069,8.851137 6.226255,4.137774 11.637242,7.523224 12.024421,7.523224 0.387187,0 0.703969,0.291015 0.703969,0.646698 0,0.355682 2.430463,2.428868 5.401028,4.607079 5.161074,3.7844315 10.343814,8.068815 16.065542,13.28080795 4.629402,4.21697595 9.827813,11.16388305 12.569274,16.79697105 2.573418,5.287813 2.654286,5.753369 2.451311,14.11295 -0.205364,8.457676 -2.222688,17.083876 -4.10482,17.552436 -0.40354,0.100466 -3.858008,-0.673563 -7.676596,-1.720051 z"
       id="path4544" />
  </g>
</svg>
