<?xml version="1.0" encoding="UTF-8"?>
<svg id="Capa_1" data-name="Capa 1" xmlns="http://www.w3.org/2000/svg" viewBox="0 0 1080 1080">
  <defs>
    <style>
      .cls-1 {
        fill: #feac41;
        stroke-width: 0px;
      }

      .cls-2 {
        fill: #007478;
      }

      .cls-2, .cls-3, .cls-4, .cls-5, .cls-6, .cls-7, .cls-8, .cls-9, .cls-10, .cls-11, .cls-12 {
        stroke: #000;
        stroke-miterlimit: 10;
        stroke-width: 17px;
      }

      .cls-3 {
        fill: #009496;
      }

      .cls-4 {
        fill: #57565b;
      }

      .cls-5 {
        fill: #dfdfe1;
      }

      .cls-6 {
        fill: #009597;
      }

      .cls-7 {
        fill: #d6d6d9;
      }

      .cls-8 {
        fill: #fed944;
      }

      .cls-9 {
        fill: #fe5023;
      }

      .cls-10 {
        fill: #fa9713;
      }

      .cls-11 {
        fill: #3e3d42;
      }

      .cls-12 {
        fill: #fefefe;
      }
    </style>
  </defs>
  <path class="cls-12" d="m937.99,429.65c0-8.99,0-17.98,0-26.97.37-69.04.29-138.09,1.43-207.12.27-16.25-5-20.94-20.8-20.53-37.76.99-75.56.32-113.34.32-218.91,0-437.83-.06-656.74.15-13.89.01-30.78-6.96-30.68,20.33.84,245.08.63,490.16.18,735.23-.03,16.16,4.89,21.06,20.75,20.56,33.3-1.06,66.66-.32,100-.32,223.36,0,446.72.06,670.08-.15,13.86-.01,30.94,7.06,30.72-20.29-1.35-167.07-1.23-334.14-1.6-501.22Z"/>
  <path class="cls-2" d="m937.99,429.65c.37,167.07.24,334.15,1.6,501.22.22,27.35-16.86,20.28-30.72,20.29-223.36.22-446.72.15-670.08.15-33.34,0-66.7-.74-100,.32-15.86.5-20.78-4.4-20.75-20.56.46-245.08.67-490.16-.18-735.23-.09-27.29,16.79-20.32,30.68-20.33,218.91-.21,437.83-.15,656.74-.15,37.78,0,75.58.68,113.34-.32,15.79-.42,21.07,4.28,20.8,20.53-1.14,69.03-1.06,138.08-1.43,207.12-29.27-1.89-59.32,6.12-87.3-11.64-10.23-6.49-23.94-1.4-32.43,9.84-7.7,10.19-7.71,20.37,0,30.56,8.49,11.23,22.2,16.34,32.43,9.85,27.98-17.76,58.03-9.75,87.3-11.64Zm-338.75,454.58c25.69,28,58.8,29.65,93.48,27.2,16.54-1.17,33.31-1.29,49.82.06,24.49,2,43.16-6.1,55.99-27.25,14.22.52,27.92-.37,41.2,8.97,12.79,8.99,27.75,7,39-5.65,9.55-10.74,9.37-22.34-.01-33.02-11.18-12.73-26.2-14.61-38.98-5.62-13.28,9.34-26.99,8.41-41.21,8.94-8.22-10.36-15.99-25.41-29.47-24.77-57.29,2.72-118.97-22.29-169.81,24.77-14.21-.55-28.21.98-41.1-9.12-11.15-8.73-23.29-4.8-32.41,5.78-9.34,10.83-9.35,22.22,0,33.05,9.12,10.57,21.26,14.53,32.42,5.79,12.89-10.1,26.89-8.57,41.1-9.12Zm33.44-159.09c4.23,14.54-15.05,40.84,21.18,39.31,34.11-1.44,12.12-26.19,17.82-39.31,9.1-.83,14.01-5.79,14.65-14.95,14.7-7.98,45.6,19.27,45.6-19.77,0-39.04-30.89-11.79-45.6-19.77,0-13.58,0-27.15,0-40.73,14.7-7.98,45.6,19.27,45.6-19.77,0-39.04-30.89-11.79-45.6-19.77,0-18.04,0-36.07,0-54.11,15.63-7.01,49.09,18.88,45.49-23-2.97-34.45-30.86-9.17-45.49-16.54-.49-11.16-.97-22.32-1.46-33.48.5-2.48,1-4.95,1.5-7.43,15.78-6.65,49.11,19.05,45.43-22.89-3.02-34.37-30.94-9.08-45.6-16.48-.5-9.04-5.26-13.81-14.27-14.31-3.65-15.51,13.72-42.94-23-39.57-31.23,2.86-10.75,26.51-16.47,39.57-15.76,0-31.52,0-47.27,0-3.65-15.51,13.71-42.94-23-39.57-31.23,2.86-10.75,26.51-16.47,39.57-17.98,0-35.96,0-53.95,0-1.47-18.06,10.9-42.74-26.39-40.22-34.71,2.34-14.57,26.35-19.76,40.22-13.53,0-27.07,0-40.6,0-1.47-18.06,10.9-42.74-26.39-40.22-34.71,2.34-14.57,26.35-19.76,40.22-9.02.5-13.77,5.27-14.27,14.31-15.47,3.66-42.83-13.75-39.48,23.06,2.86,31.31,26.45,10.77,39.48,16.51,0,13.57,0,27.13,0,40.7-15.47,3.66-42.83-13.75-39.48,23.06,2.86,31.31,26.45,10.77,39.48,16.51v54.08c-15.47,3.66-42.83-13.75-39.48,23.06,2.86,31.31,26.45,10.77,39.47,16.51,0,13.57,0,27.13,0,40.7-13.84,5.17-39.59-15.1-39.59,19.78s25.76,14.61,39.59,19.78c.49,9.27,5.61,13.95,14.6,14.77,4.69,13.95-15.61,37.66,19.36,39.93,36.93,2.39,25.52-21.27,25.95-39.74,2.38-.57,4.77-1.13,7.15-1.7,11.4.55,22.8,1.1,34.2,1.65,4.83,13.86-15.51,37.63,19.54,39.82,36.97,2.31,25.08-21.67,26.13-39.82,18.14,0,36.28,0,54.43,0,4.23,14.54-15.05,40.84,21.18,39.31,34.11-1.44,12.12-26.19,17.82-39.31,15.92,0,31.84,0,47.75,0Zm192.98-54.88c0,10.01-.08,20.03.02,30.04.23,23.24,4.24,49.92-33.25,25.4-10.15-6.64-21.46.99-28.47,10.95-7.39,10.5-6.33,20.9,1.92,30.47,8.07,9.37,18.4,13.41,29.67,7.52,9.82-5.14,18.53-12.17,30.61-10.64,27.59,3.5,32.36-11.43,33.58-35.78,2.24-44.65-11.36-90.66,11.35-134.04,5.73-10.95-3.63-21.66-13.85-27.32-10.17-5.63-21.54-5.67-31.59,1.12-9.94,6.72-18.28,18.04-11.5,28.17,15.78,23.6,10.28,49.08,11.5,74.11ZM165.93,348.73c-6.22,32.67,9.12,67.86-12.13,99.93-6.72,10.14.19,21.47,9.92,28.81,10.18,7.68,20.49,7.23,30.33-.73,9.57-7.74,12.61-17.38,9.17-29.56-18.51-65.65-18.92-131.34.3-196.97,3.58-12.23-.76-21.71-10.41-29.17-8.9-6.88-18.5-7.38-27.68-1.22-9.83,6.61-18.65,17.63-12.06,27.94,20.54,32.14,7.32,67.11,12.55,100.97Zm78.55,522.29c-36.9-.01-51.35-13.16-52.49-47.05-.55-16.26-2.7-32.7,8.92-47.7,8.69-11.22,4.06-23.3-6.39-32.32-9.57-8.26-20.03-9.03-30.29-1.48-10.96,8.06-17.53,20.13-9.33,31.57,11.58,16.16,9.84,33.29,10.19,50.83.94,47.14,26.59,72.68,73.07,72.94,14.26.08,28.12-.93,40.99,8.97,11.21,8.62,23.25,4.66,32.38-5.8,9.42-10.78,9.31-22.18.12-32.97-9-10.56-20.95-14.47-32.34-6.04-11.82,8.75-24.25,9.59-34.82,9.07ZM482.07,255.33c22.89,2.46,46.18-4.79,67.55,10.88,11.16,8.18,23.41.58,31.16-10.48,6.41-9.14,6.13-18.75-.53-27.73-8.13-10.95-18.41-15.04-31.87-9.93-44.54,16.94-89.07,17.37-133.61-.35-13.36-5.32-23.82.01-31.58,11.01-6.45,9.13-6.05,18.78.56,27.74,8.1,10.99,20.3,17.7,31.47,9.39,21.34-15.89,44.78-7.67,66.85-10.53Zm-163.54,12.71c0-7.8-.97-15.75.18-23.37,3.5-23.03-4.85-29.78-28.62-30.22-25.74-.48-26.07,12.07-25.1,30.41.82,15.55,1.11,31.26-.07,46.76-1.54,20.33.44,31.96,27.02,32,26.92.05,28.64-12.22,26.71-32.21-.75-7.73-.12-15.58-.12-23.38Zm467.75-12.43c9.9,0,19.86-.68,29.68.16,15.61,1.33,23.65-1.75,23.73-20.86.09-20.73-11.06-19.82-25.01-19.54-20.89.42-41.85,1.05-62.67-.18-16.43-.97-19.99,5.7-20.28,20.99-.32,17.01,6.87,20.74,21.56,19.59,10.93-.86,21.98-.17,32.98-.16Zm-.03,40.14c-9.9,0-19.81.32-29.69-.08-13.94-.55-25.1-1.24-25.01,19.5.09,19.1,8.11,21.66,23.73,20.94,20.85-.96,41.81-.92,62.67-.01,14.69.64,21.88-2.65,21.56-19.66-.29-15.29-3.86-22.56-20.28-20.9-10.89,1.1-21.98.21-32.98.2Z"/>
  <path class="cls-6" d="m937.99,429.65c-29.27,1.89-59.32-6.12-87.3,11.64-10.23,6.5-23.94,1.38-32.43-9.85-7.71-10.19-7.7-20.37,0-30.56,8.49-11.24,22.21-16.33,32.43-9.84,27.98,17.76,58.03,9.75,87.3,11.64,0,8.99,0,17.98,0,26.97Z"/>
  <path class="cls-4" d="m359.18,724.98c-9-.82-14.11-5.5-14.6-14.78,0-13.19,0-26.38,0-39.57,0-13.57,0-27.13,0-40.71,0-13.19,0-26.38,0-39.57,0-18.03,0-36.05,0-54.08,0-13.19,0-26.38,0-39.57,0-13.57,0-27.13,0-40.71,0-13.19,0-26.38,0-39.57.5-9.04,5.26-13.81,14.28-14.3,15.38,0,30.76,0,46.14,0,13.53,0,27.07,0,40.6,0,15.38,0,30.76,0,46.14,0,17.98,0,35.96,0,53.95,0,13.16,0,26.31,0,39.47,0,15.76,0,31.52,0,47.28,0,13.16,0,26.31,0,39.47,0,9.02.5,13.77,5.27,14.27,14.31.06,13.12.11,26.24.17,39.36-.5,2.48-1,4.95-1.49,7.43-1.78,2.72-4.87,5.3-5.16,8.18-9.19,90.9-63.63,151.41-133.29,202.57-40.48,29.73-90.21,32.09-134.77,49.49-2.38.57-4.77,1.13-7.15,1.69-15.1-.07-30.2-.13-45.3-.19Z"/>
  <path class="cls-11" d="m411.64,723.48c44.56-17.4,94.3-19.76,134.77-49.49,69.66-51.17,124.1-111.67,133.29-202.57.29-2.87,3.38-5.46,5.16-8.18.48,11.16.97,22.32,1.45,33.49,0,13.18,0,26.36,0,39.54,0,18.04,0,36.07,0,54.11,0,13.18,0,26.36,0,39.54,0,13.58,0,27.15,0,40.74,0,13.18,0,26.36,0,39.54-.65,9.16-5.55,14.12-14.66,14.94-13,0-25.99,0-38.99,0-15.92,0-31.84,0-47.76,0-13,0-25.99,0-38.99,0-18.14,0-36.28,0-54.43,0-15.22,0-30.44,0-45.66,0-11.4-.55-22.8-1.1-34.2-1.65Z"/>
  <path class="cls-10" d="m798.52,884.22c-12.82,21.15-31.5,29.25-55.99,27.25-16.51-1.35-33.28-1.22-49.82-.06-34.68,2.45-67.79.8-93.48-27.2,0-8.79,0-17.59,0-26.38,50.84-47.06,112.52-22.05,169.81-24.77,13.48-.64,21.25,14.4,29.47,24.77,0,8.79,0,17.59,0,26.38Zm-104.17-34.02c-19.37-4.93-38.84-10.03-65.67,1.48,26.93,8.44,46.29,7,65.67-1.48Z"/>
  <path class="cls-6" d="m825.66,670.26c-1.24-25.03,4.27-50.51-11.51-74.11-6.78-10.13,1.56-21.45,11.5-28.17,10.04-6.79,21.42-6.75,31.59-1.12,10.22,5.66,19.58,16.37,13.85,27.32-22.71,43.39-9.11,89.39-11.35,134.04-1.22,24.35-5.99,39.28-33.58,35.78-12.08-1.53-20.78,5.5-30.61,10.64-11.27,5.9-21.6,1.86-29.67-7.52-8.25-9.57-9.31-19.98-1.92-30.47,7.01-9.96,18.32-17.58,28.47-10.95,37.49,24.52,33.48-2.16,33.25-25.4-.1-10.01-.02-20.02,0-30.04Z"/>
  <path class="cls-6" d="m165.93,348.73c-5.24-33.86,7.98-68.83-12.55-100.97-6.59-10.31,2.22-21.33,12.06-27.94,9.18-6.17,18.79-5.66,27.68,1.22,9.65,7.46,13.99,16.94,10.41,29.17-19.23,65.63-18.81,131.32-.3,196.97,3.44,12.19.4,21.82-9.17,29.56-9.84,7.96-20.15,8.41-30.33.73-9.73-7.35-16.65-18.67-9.92-28.81,21.26-32.07,5.91-67.26,12.13-99.93Z"/>
  <path class="cls-6" d="m244.48,871.02c10.57.53,23-.31,34.82-9.07,11.39-8.43,23.34-4.53,32.34,6.04,9.2,10.8,9.3,22.19-.12,32.97-9.14,10.46-21.17,14.42-32.38,5.8-12.87-9.89-26.73-8.89-40.99-8.97-46.48-.26-72.14-25.79-73.07-72.94-.35-17.54,1.4-34.68-10.19-50.83-8.2-11.44-1.63-23.51,9.33-31.57,10.27-7.55,20.72-6.78,30.29,1.48,10.45,9.02,15.08,21.09,6.39,32.32-11.62,15-9.46,31.44-8.92,47.7,1.14,33.89,15.59,47.04,52.49,47.05Z"/>
  <path class="cls-6" d="m482.07,255.33c-22.07,2.86-45.52-5.36-66.85,10.53-11.16,8.31-23.37,1.6-31.47-9.39-6.6-8.96-7-18.62-.56-27.74,7.77-11,18.22-16.33,31.58-11.01,44.54,17.72,89.07,17.29,133.61.35,13.45-5.12,23.74-1.02,31.87,9.93,6.66,8.98,6.94,18.59.53,27.73-7.75,11.06-20,18.66-31.16,10.48-21.37-15.66-44.67-8.42-67.55-10.88Z"/>
  <path class="cls-9" d="m318.53,268.04c0,7.8-.62,15.66.12,23.38,1.93,19.98.21,32.25-26.71,32.21-26.58-.05-28.57-11.67-27.02-32,1.18-15.51.88-31.21.07-46.76-.96-18.34-.64-30.88,25.1-30.41,23.77.44,32.12,7.19,28.62,30.22-1.16,7.62-.18,15.57-.18,23.37Z"/>
  <path class="cls-8" d="m786.28,255.61c-11,0-22.05-.69-32.98.17-14.69,1.15-21.88-2.59-21.56-19.59.29-15.29,3.85-21.96,20.28-20.99,20.82,1.23,41.78.6,62.67.18,13.95-.28,25.09-1.19,25.01,19.54-.08,19.11-8.12,22.19-23.73,20.86-9.83-.84-19.78-.16-29.68-.16Z"/>
  <path class="cls-8" d="m786.25,295.76c11,0,22.09.89,32.98-.2,16.42-1.66,20,5.61,20.28,20.9.32,17.01-6.87,20.29-21.56,19.66-20.86-.91-41.82-.95-62.67.01-15.62.72-23.65-1.84-23.73-20.94-.09-20.74,11.07-20.05,25.01-19.5,9.88.39,19.79.08,29.69.08Z"/>
  <path class="cls-3" d="m798.52,884.22c0-8.79,0-17.59,0-26.38,14.22-.54,27.93.39,41.21-8.94,12.78-8.98,27.79-7.11,38.98,5.62,9.38,10.68,9.56,22.28.01,33.02-11.24,12.65-26.2,14.64-39,5.65-13.28-9.33-26.98-8.44-41.2-8.97Z"/>
  <path class="cls-3" d="m599.24,857.84c0,8.79,0,17.59,0,26.38-14.21.55-28.21-.99-41.1,9.12-11.15,8.74-23.3,4.78-32.42-5.79-9.35-10.83-9.34-22.22,0-33.05,9.12-10.58,21.27-14.51,32.41-5.78,12.89,10.1,26.89,8.57,41.1,9.12Z"/>
  <path class="cls-5" d="m405,402.14c-15.38,0-30.76,0-46.14,0,5.19-13.88-14.96-37.88,19.76-40.23,37.28-2.51,24.91,22.16,26.39,40.22Z"/>
  <path class="cls-5" d="m491.74,402.14c-15.38,0-30.76,0-46.14,0,5.19-13.88-14.96-37.88,19.76-40.23,37.28-2.51,24.91,22.16,26.39,40.22Z"/>
  <path class="cls-5" d="m686.35,455.81c-.06-13.12-.12-26.24-.17-39.36,14.67,7.39,42.59-17.9,45.61,16.47,3.68,41.95-29.65,16.24-45.43,22.89Z"/>
  <path class="cls-5" d="m686.32,536.27c0-13.18,0-26.36,0-39.54,14.64,7.37,42.52-17.91,45.49,16.54,3.61,41.88-29.85,15.99-45.49,23Z"/>
  <path class="cls-5" d="m686.32,629.92c0-13.18,0-26.35,0-39.54,14.71,7.98,45.6-19.27,45.6,19.77,0,39.04-30.89,11.79-45.6,19.77Z"/>
  <path class="cls-5" d="m686.32,710.19c0-13.18,0-26.35,0-39.54,14.71,7.98,45.6-19.27,45.6,19.77,0,39.04-30.89,11.79-45.6,19.77Z"/>
  <path class="cls-7" d="m359.18,724.98c15.1.06,30.2.12,45.3.19-.43,18.48,10.98,42.14-25.94,39.74-34.96-2.27-14.67-25.99-19.36-39.93Z"/>
  <path class="cls-7" d="m445.83,725.13c15.22,0,30.44,0,45.66,0-1.04,18.15,10.85,42.13-26.12,39.82-35.05-2.19-14.71-25.95-19.54-39.82Z"/>
  <path class="cls-5" d="m585.16,402.14c-13.16,0-26.31,0-39.47,0,5.72-13.06-14.76-36.71,16.47-39.58,36.72-3.37,19.35,24.07,23,39.57Z"/>
  <path class="cls-5" d="m671.91,402.14c-13.16,0-26.31,0-39.47,0,5.72-13.06-14.76-36.71,16.47-39.58,36.72-3.37,19.35,24.07,23,39.57Z"/>
  <path class="cls-5" d="m344.58,416.44c0,13.19,0,26.38,0,39.57-13.03-5.73-36.62,14.8-39.48-16.51-3.36-36.81,24.01-19.4,39.48-23.06Z"/>
  <path class="cls-5" d="m344.58,590.37c0,13.19,0,26.38,0,39.57-13.03-5.73-36.62,14.8-39.48-16.51-3.36-36.81,24.01-19.4,39.48-23.06Z"/>
  <path class="cls-5" d="m344.58,670.64c0,13.19,0,26.38,0,39.57-13.84-5.17-39.6,15.11-39.6-19.78s25.76-14.61,39.59-19.78Z"/>
  <path class="cls-7" d="m545.93,725.14c12.99,0,25.99,0,38.99,0-5.69,13.12,16.3,37.88-17.81,39.32-36.23,1.53-16.95-24.77-21.18-39.31Z"/>
  <path class="cls-7" d="m632.68,725.14c12.99,0,25.99,0,38.99,0-5.69,13.12,16.3,37.88-17.81,39.32-36.23,1.53-16.95-24.77-21.18-39.31Z"/>
  <path class="cls-5" d="m344.58,496.71c0,13.19,0,26.38,0,39.57-13.03-5.73-36.62,14.8-39.48-16.51-3.36-36.81,24.01-19.4,39.48-23.06Z"/>
  <path class="cls-1" d="m694.36,850.2c-19.38,8.48-38.74,9.92-65.67,1.48,26.82-11.51,46.3-6.41,65.67-1.48Z"/>
</svg>