<?xml version="1.0" encoding="UTF-8"?>
<svg id="Capa_1" data-name="Capa 1" xmlns="http://www.w3.org/2000/svg" viewBox="0 0 1080 1080">
  <defs>
    <style>
      .cls-1 {
        fill: #a1ade1;
      }

      .cls-1, .cls-2, .cls-3, .cls-4, .cls-5 {
        stroke: #000;
        stroke-miterlimit: 10;
        stroke-width: 17px;
      }

      .cls-2 {
        fill: #5068cb;
      }

      .cls-3 {
        fill: #31a6fa;
      }

      .cls-4 {
        fill: #8cc8fa;
      }

      .cls-5 {
        fill: #fdcdbf;
      }
    </style>
  </defs>
  <path class="cls-2" d="m368.06,935.9c-44.77-.27-89.55-.27-134.32,0-6.71.04-7.35-1.95-6.51-8.25,13.39-99.42,27.49-438.93,42.57-538.1,3.03-19.96,6.65-39.82,9.67-59.78.96-6.36,3.14-9.41,10.17-9.07,11.95.59,23.96.28,35.93.01,10.1-.23,15.78-5.36,16.03-13.83.26-8.8-5.74-14.62-16.05-14.9-10.4-.29-20.81-.29-31.21-.01-6.19.17-6.99-2.6-5.11-7.66,6.13-16.44,17.58-26.76,34.1-31.92,48.45-15.12,96.81-30.52,145.22-45.76,30.69-9.66,29.46-6.26,29.37-40.86-.04-15.74-1.75-13.57,13.71-13.6,20.49-.05,40.99.56,61.47.14,7.31-.15,8.96,2.26,8.79,9.27-.8,32.65-.83,29.64,28.98,39.09,54.69,17.34,109.36,34.75,164.16,51.72,20.83,6.45,32.95,20.22,37.39,41.56,10.12,48.62,17.4,97.74,24.56,146.86,11.56,79.25,22.49,398.78,33.77,478.07,2.36,16.62,2.52,16.57-14.06,16.6-53.28.08-106.57.19-159.85.28-3.4,0-322.41.18-328.78.14Zm-58.31-370.6c-3.61,14.58-2.88,29.32-1.58,44.09-16.3,4.77-19.23,9.91-16.99,29.88,5.88,52.56,27.98,70.72,76.08,62.07,36.92-6.64,73.31-15.92,111.21-17.12,24.44-.77,41.89-18.04,48.74-42.13,3.23-11.36,3.3-22.92,2.86-34.52-1.17-30.88-10.67-59.8-20.29-88.7-6.72-20.17-6.59-20.18,10.9-30.38,2.92-1.7,5.92-3.42,8.48-5.61,6.43-5.5,12.54-15.58,18.94-15.71,6.18-.13,13.04,9.42,18.75,15.55,7.32,7.85,23.69,6.49,24.43,18.24.68,10.76-5.96,22.04-9.56,33.03-8.57,26.17-15.53,52.74-15.93,80.49-.66,45.87,21.77,69.34,66.51,70.8,16.47.54,32.72,3.12,48.93,6.22,23.98,4.59,47.44,12.3,72.31,11.66,21.97-.56,36.84-10.73,44.21-31.81,2.25-6.45,4.39-13.07,5.43-19.8,13.51-87.33-.21-170.25-40.36-248.44-23.54-45.85-57.27-80.46-107.54-95.5-20.41-6.1-39.61-4.75-55.36,11.03-15.11,15.13-14.39,33.67-8.59,52.85,7.4,24.49,9.14,49.7,8.69,75.17-.17,9.47-3.41,10.3-10.39,4.85-14.35-11.2-22.07-25.76-22.14-44.18-.15-37.4-.02-74.8-.11-112.2-.04-15.87-7.32-25.18-19.28-25.11-11.87.07-18.67,9.22-18.69,25.46-.06,36.54.03,73.08-.05,109.62-.05,19.28-7.44,35-22.72,46.61-2.26,1.71-4.66,4.51-7.82,3.04-3.42-1.58-1.97-5.31-2.06-8.07-.83-25.91.96-51.57,8.74-76.43,5.92-18.9,5.58-36.77-8.85-51.59-14.89-15.29-33.52-17.22-52.95-11.86-32.69,9.02-60.44,26.64-81.75,53.47-41.86,52.7-62.17,114.41-70.45,180.74-1.83,14.68,2.88,19.94,18.28,24.3Z"/>
  <path class="cls-4" d="m144,423.28c0-85.99,0-171.98,0-257.97q0-13.19,13-13.2c41.92,0,83.84-.08,125.76.06,8.64.03,15.62-1.98,18.62-11.24.1-.3.12-.65.28-.91,2.83-4.61,31.12-3.76,33.06,1.28,3.32,8.65,9.69,10.88,17.99,10.85,35.62-.12,71.24.18,106.85-.23,7.61-.09,9.68,1.75,10.24,9.83.8,11.47-3.28,15.72-13.84,18.88-46.74,13.97-93.19,28.97-139.73,43.64-29.74,9.37-49.25,28.83-56.25,60.14-1.4,6.25-4.24,7.88-10.31,7.72-17.32-.45-34.67-.26-52-.12-11.47.09-17.27,5.15-17.21,14.51.06,9.26,5.82,14.16,17.44,14.29,15.13.17,30.27.34,45.38-.08,6.72-.19,9.2.66,7.8,8.73-13.55,78.27-24.44,156.97-35.66,235.61-5.84,40.91-11.47,322.06-16.71,363.05-.88,6.91-3.59,8.01-9.55,7.77-11.33-.46-22.72-.69-34.02.04-8.98.58-11.32-2.95-11.28-11.6.29-54.22.15-348.65.15-402.87,0-32.73,0-65.45,0-98.18Zm68.09-153.2c6.3,0,12.61.19,18.9-.05,8.49-.32,13.93-5.6,14.3-13.44.38-7.89-4.61-14.65-12.74-15.04-13.2-.63-26.47-.65-39.67.05-8.04.43-13.09,7.41-12.35,15.32.76,8.24,5.57,12.69,13.6,13.09,5.97.3,11.97.06,17.96.07Zm.6-50.38c5.99,0,11.98.23,17.96-.05,8.9-.42,14.6-6.12,14.69-14.24.09-8.24-5.48-14.22-14.32-14.46-11.96-.32-23.95-.29-35.91-.02-9.02.2-14.59,5.87-14.66,14.1-.07,8.27,5.45,14.13,14.29,14.61,5.97.32,11.97.06,17.96.07Z"/>
  <path class="cls-3" d="m893.89,152.56c17.95-.15,35.89-.18,53.84-.5,5.83-.11,7.95,2.59,7.68,8.13-.13,2.56,0,5.13,0,7.7,0,128.93.03,257.86-.05,386.79,0,10.05.1,19.63,12.16,22.91,2.98.81,2.2,3.48,2.24,5.59.08,4.81,0,9.62.03,14.43.04,6.77,1.65,13.47-8.07,16.21-5.82,1.64-6.3,8.94-6.29,14.92.01,18.92-.21,278.05.1,296.96.12,7.31-2.14,10.48-9.75,10.19-12.58-.48-25.2-.23-37.8-.07-3.93.05-6.21-.46-6.78-5.36-2.24-19.38-6.06-278.77-7.29-298.28.07-88.1.18-176.2.19-264.31,0-71.77-.12-143.54-.18-215.3Z"/>
  <path class="cls-4" d="m893.89,152.56c.07,71.77.19,143.54.18,215.3,0,88.1-.12,176.21-.19,264.31-3.72-25.33-7.46-50.64-11.15-75.97-12.89-88.46-24.52-177.13-41.49-264.93-6.79-35.15-26.51-57.45-60.43-67.8-53.92-16.44-107.57-33.78-161.33-50.74-8.21-2.59-11.84-10-8.97-18.04.49-1.38,1.09-2.21,2.46-2.39.93-.13,1.88-.18,2.82-.18,92.7.14,185.39.29,278.09.44Z"/>
  <path class="cls-5" d="m438.41,648.43c-24.88,4.9-49.77,9.79-74.65,14.69-1.66.33-3.3.78-4.97,1.01-21.05,2.83-23.59,1.06-28.13-20.26-.98-4.61-1.38-9.35-2.01-14.04-1.65-12.13-7.62-19.83-20.35-20.59-1.3-14.87-2.03-29.73,1.61-44.42,13.16-1.69,18.26-9.87,19.98-22.77,7.83-58.79,25.89-113.58,63.36-160.27,6.99-8.71,14.92-16.56,24.88-21.89,1.31,5.84-1.14,11.07-2.64,16.44-5.81,20.86-9.11,42.07-9.7,63.79-1.03,38.15,6.41,74.62,19.13,110.33,11.25,31.6,17.57,64.1,13.51,97.98Z"/>
  <path class="cls-5" d="m716.89,658.86c-29.56-6.14-59.09-12.35-89.47-12.49-11.52-.05-17.82-6.44-19.83-17.9-3.87-22.03,1.59-42.99,6.95-63.9,6.53-25.47,17.04-49.73,21.56-75.86,7.11-41.1,5.22-81.87-2.88-122.55,14.3,5.13,21.21,18.27,28.63,29.76,51.81,80.25,67.56,168.59,55.04,262.94Z"/>
  <path class="cls-1" d="m716.89,658.86c12.52-94.34-3.22-182.69-55.04-262.94-7.41-11.48-14.33-24.62-28.63-29.76-2.53-7.45-9.02-15.97-2.55-22.59,6.23-6.38,15.31-1.62,22.91,1,25.4,8.76,46.24,24.44,61.15,46.76,51.65,77.29,68.09,162.78,54.28,254.59-2.88,19.17-5.52,20.46-24.64,18.32-9.24-1.04-18.33-3.54-27.49-5.37Z"/>
  <path class="cls-1" d="m438.41,648.43c4.06-33.88-2.25-66.38-13.51-97.98-12.72-35.71-20.16-72.18-19.13-110.33.59-21.72,3.89-42.93,9.7-63.79,1.49-5.37,3.95-10.6,2.64-16.44,11.78-9.69,25.37-15.58,40.09-18.32,12.26-2.28,15.8,1.99,12.5,13.99-16.89,61.46-14.16,122.06,6.85,182.11,8.83,25.24,16.52,50.91,16.27,78.17-.22,24.69-5.64,30.07-30.01,30.88-8.47.28-16.93,1.14-25.39,1.73Z"/>
</svg>