<?xml version="1.0" encoding="UTF-8"?>
<svg id="Capa_1" data-name="Capa 1" xmlns="http://www.w3.org/2000/svg" viewBox="0 0 1080 1080">
  <defs>
    <style>
      .cls-1 {
        fill: #fefefe;
      }

      .cls-1, .cls-2, .cls-3, .cls-4, .cls-5, .cls-6, .cls-7 {
        stroke-width: 0px;
      }

      .cls-2 {
        fill: #e0e9fc;
      }

      .cls-3 {
        fill: #e1eafd;
      }

      .cls-5 {
        fill: #27cffd;
      }

      .cls-6 {
        fill: #fcd67f;
      }

      .cls-7 {
        fill: #c6d7f7;
      }
    </style>
  </defs>
  <path class="cls-1" d="m359.97,932.89c-63.56,0-127.11-.05-190.67.11-4.21.01-5.3-.66-5.3-5.17.15-246.45.15-492.91,0-739.36,0-4.82,1.4-5.47,5.71-5.47,246.19.11,492.38.11,738.57,0,4.31,0,5.72.65,5.71,5.47-.15,246.45-.15,492.91,0,739.36,0,4.51-1.09,5.18-5.3,5.17-63.07-.16-126.14-.11-189.21-.11,6.07-4.98,8.38-11.34,7.37-19.11-.37-2.88.02-5.84-.1-8.76-.68-16.28-7.96-28.84-21.64-37.59-9.15-5.85-19.44-7.56-30.07-7.06-4.59.22-6.84-1.17-8.38-5.73-4.89-14.5-10.07-28.91-15.69-43.14-2.5-6.33-1.07-7.38,5.39-7.35,61.62.24,123.24.15,184.86.11,4.37,0,8.82.04,13.1-.68,29.99-5.07,49.11-28.25,49.12-59.64.05-131.04.02-262.09.02-393.13,0-8.04.16-16.08-.06-24.11-.82-29.86-22.14-53.46-51.87-56.2-14.01-1.29-28.22-.64-42.34-.66-9.57-.01-11.94,1.96-15.04,11.44-7.21.02-14.41.04-21.62.06-.08-17.77-.18-35.54-.24-53.31-.09-26.94-16.68-43.46-43.84-43.47-126.35-.02-252.71-.02-379.06,0-25.26,0-42.07,16.79-42.22,42-.11,18.26-.17,36.51-.25,54.77-7.22.06-14.44.12-21.67.18-3.07-9.67-5.82-11.67-16.4-11.71-10.23-.04-20.45-.02-30.68,0-38.06.06-62.17,24.04-62.17,61.91-.02,136.85-.02,273.69,0,410.54,0,37.98,24.04,62.02,61.97,62.03,61.36.01,122.71,0,184.07,0h7.74c.15,1.07.39,1.61.25,2.01-5.07,14.18-10.16,28.34-15.27,42.5q-4.08,11.28-15.84,11.48c-21.37.38-38.48,12.98-44.38,32.59-2.29,7.61-1.48,15.43-2.01,23.18-.49,7.17,1.54,12.74,7.43,16.85Z"/>
  <path class="cls-4" d="m794.16,281.27c3.09-9.49,5.47-11.46,15.04-11.45,14.12.02,28.32-.63,42.34.66,29.73,2.74,51.05,26.34,51.87,56.2.22,8.03.06,16.07.06,24.11,0,131.04.03,262.09-.02,393.13-.01,31.39-19.13,54.57-49.12,59.64-4.28.72-8.73.68-13.1.68-61.62.04-123.24.12-184.86-.11-6.46-.02-7.89,1.02-5.39,7.35,5.62,14.23,10.8,28.64,15.69,43.14,1.54,4.56,3.78,5.95,8.38,5.73,10.63-.5,20.92,1.21,30.07,7.06,13.68,8.75,20.96,21.31,21.64,37.59.12,2.92-.27,5.88.1,8.76,1.01,7.78-1.31,14.13-7.37,19.11h-359.52c-5.89-4.11-7.92-9.68-7.43-16.85.53-7.74-.28-15.57,2.01-23.18,5.9-19.61,23.01-32.21,44.38-32.59q11.75-.21,15.84-11.48c5.12-14.16,10.21-28.33,15.27-42.5.14-.4-.1-.94-.25-2.01h-7.74c-61.36,0-122.71.01-184.07,0-37.93,0-61.97-24.06-61.97-62.03-.01-136.85-.02-273.69,0-410.54,0-37.87,24.12-61.85,62.17-61.91,10.23-.02,20.45-.03,30.68,0,10.58.04,13.33,2.04,16.4,11.71-2.85,10.18-4.58,11.52-15.38,11.57-10.47.05-20.94,0-31.42.01-25.53.03-39.09,13.67-39.09,39.35,0,121.04,0,242.09.01,363.13,0,2.67.2,5.34.3,8.01-.1,13.15-.28,26.29-.28,39.44,0,24.17,13.81,37.84,38.18,37.84,78.91.01,157.83,0,236.74,0,123,0,246,.01,369-.01,20.86,0,35.79-13.03,36.55-32.72.58-14.83-.03-29.7-.1-44.55.11-2.18.3-4.37.3-6.55.01-122.25.01-244.51.01-366.76,0-.97.02-1.95-.01-2.92-.57-17.61-12.15-31.08-29.62-33.53-13.29-1.87-26.74-.46-40.11-.71-11.01-.2-12.89-1.46-16.18-11.85Zm-254.15,578.99c32.61,0,65.21-.07,97.82.07,5,.02,7.16-.5,4.92-6.35-5.98-15.64-11.52-31.46-16.98-47.3-1.35-3.92-3.5-4.97-7.49-4.96-52.32.13-104.64.14-156.95-.01-4.39-.01-6.41,1.43-7.82,5.52-5.27,15.39-10.63,30.76-16.49,45.93-2.33,6.04-.97,7.26,5.16,7.22,32.61-.23,65.21-.11,97.82-.11Zm-.41,49.23c52.36,0,104.71-.14,157.07.16,7.07.04,7.52-2.84,6.32-8.17-2.05-9.06-9.11-15.52-18.7-17.14-9.72-1.64-19.43-.07-29.14-.07-76.95.02-153.9.03-230.85-.02-8.51,0-17.03-.7-25.53-.53-11.5.23-19.65,6.92-22.17,17.51-1.75,7.35-1.04,8.24,6.67,8.24,52.11,0,104.23,0,156.34,0Z"/>
  <path class="cls-5" d="m199.69,703.59c-.11-2.67-.3-5.34-.3-8.01-.02-121.04-.02-242.09-.01-363.13,0-25.68,13.56-39.32,39.09-39.35,10.47-.01,20.94.03,31.42-.01,10.8-.05,12.53-1.39,15.38-11.57,7.22-.06,14.44-.12,21.67-.18.09,2.91.27,5.83.27,8.74.01,105.66,0,211.32.03,316.99,0,26.09,16.27,42.62,42.14,42.63,126.83.05,253.67.03,380.5,0,4.12,0,8.23.01,12.3-1.15,18.53-5.28,30.09-20.71,30.1-40.76.04-98.36.01-196.72.03-295.08,0-10.46.17-20.92.27-31.38,7.21-.02,14.41-.04,21.62-.06,3.29,10.39,5.17,11.64,16.18,11.85,13.38.25,26.82-1.16,40.11.71,17.47,2.45,29.05,15.92,29.62,33.53.03.97.01,1.95.01,2.92,0,122.25,0,244.51-.01,366.76,0,2.18-.2,4.37-.3,6.55-7.2-.01-14.39-.03-21.59-.04-3.26-9.53-6.06-11.66-15.81-11.66-201.82-.01-403.64-.01-605.47,0-10.01,0-12.55,1.96-15.64,11.66-7.19.02-14.39.03-21.58.05Z"/>
  <path class="cls-4" d="m772.54,281.33c-.09,10.46-.26,20.92-.27,31.38-.02,98.36,0,196.72-.03,295.08,0,20.04-11.56,35.47-30.1,40.76-4.07,1.16-8.18,1.15-12.3,1.15-126.83.02-253.67.05-380.5,0-25.87-.01-42.13-16.55-42.14-42.63-.03-105.66-.01-211.32-.03-316.99,0-2.91-.17-5.83-.27-8.74.08-18.25.14-36.51.25-54.76.15-25.22,16.96-42,42.22-42,126.35-.03,252.71-.02,379.06,0,27.16,0,43.75,16.52,43.84,43.47.06,17.77.16,35.54.24,53.31Zm-232.59,33.14c-67.21,0-134.42.11-201.63-.17-6.61-.03-7.91,1.8-7.9,8.07.21,94.49.14,188.98.15,283.47,0,15.09,5.5,20.53,20.81,20.53,125.65.01,251.31.02,376.96,0,15.11,0,20.54-5.53,20.54-20.82.01-94.49-.08-188.98.19-283.47.02-6.88-2.23-7.75-8.22-7.74-66.97.2-133.93.12-200.9.12Zm.67-23.59c67.45,0,134.9-.07,202.35.12,5.6.02,7.48-1.22,7.35-7.16-.41-18.74-.12-37.5-.16-56.25-.03-12.84-6.46-19.61-19.1-19.61-127.35-.05-254.71-.05-382.06,0-11.97,0-18.35,6.51-18.41,18.6-.09,18.75.34,37.51-.21,56.25-.21,7.1,2.29,8.22,8.62,8.2,67.21-.21,134.42-.13,201.62-.13Z"/>
  <path class="cls-3" d="m199.69,703.59c7.19-.02,14.39-.03,21.58-.05,3.4,10.22,5.45,11.74,16.22,11.74,201.5,0,402.99,0,604.49,0,10.78,0,12.82-1.52,16.22-11.74,7.2.01,14.39.03,21.59.04.08,14.85.68,29.72.1,44.55-.76,19.69-15.69,32.72-36.55,32.72-123,.03-246,.01-369,.01-78.91,0-157.83,0-236.74,0-24.37,0-38.18-13.67-38.18-37.84,0-13.15.18-26.29.28-39.44Z"/>
  <path class="cls-2" d="m540.01,860.27c-32.61,0-65.22-.12-97.82.11-6.13.04-7.49-1.18-5.16-7.22,5.86-15.17,11.22-30.54,16.49-45.93,1.4-4.09,3.42-5.53,7.82-5.52,52.32.15,104.64.14,156.95.01,3.99,0,6.13,1.04,7.49,4.96,5.46,15.84,11,31.66,16.98,47.3,2.24,5.85.08,6.37-4.92,6.35-32.61-.14-65.21-.07-97.82-.07Z"/>
  <path class="cls-7" d="m539.6,909.5c-52.11,0-104.23,0-156.34,0-7.72,0-8.42-.89-6.67-8.24,2.51-10.59,10.67-17.29,22.17-17.51,8.5-.17,17.02.53,25.53.53,76.95.05,153.9.04,230.85.02,9.71,0,19.42-1.57,29.14.07,9.59,1.62,16.65,8.08,18.7,17.14,1.21,5.33.75,8.21-6.32,8.17-52.35-.3-104.71-.16-157.07-.16Z"/>
  <path class="cls-4" d="m858.19,703.55c-3.39,10.22-5.44,11.74-16.22,11.74-201.5,0-402.99,0-604.49,0-10.77,0-12.82-1.52-16.22-11.74,3.09-9.7,5.63-11.66,15.64-11.66,201.82-.01,403.64-.01,605.47,0,9.75,0,12.55,2.14,15.81,11.66Z"/>
  <path class="cls-7" d="m539.95,314.47c66.97,0,133.93.07,200.9-.12,5.99-.02,8.24.85,8.22,7.74-.27,94.49-.18,188.98-.19,283.47,0,15.29-5.42,20.82-20.54,20.82-125.65.02-251.31.02-376.96,0-15.3,0-20.8-5.44-20.81-20.53-.01-94.49.06-188.98-.15-283.47-.01-6.28,1.29-8.1,7.9-8.07,67.21.28,134.42.17,201.63.17Zm-.32,212.51c-43.81,0-87.61,0-131.42.02-2.66,0-5.38.03-7.98.53-5.86,1.12-8.87,5.19-8.94,10.84-.08,5.94,2.93,10.32,9.01,11.61,3.05.65,6.29.6,9.44.6,86.64.03,173.28.02,259.91.01,2.43,0,4.88.05,7.29-.22,6.73-.76,11.07-5.16,11.3-11.24.22-5.9-4.11-10.85-10.65-11.88-2.38-.37-4.85-.28-7.28-.28-43.56-.01-87.12-.01-130.69-.01Zm-.69,71.39c24.58,0,49.15,0,73.73,0,21.17,0,42.34.09,63.51-.08,7.01-.06,11.86-4.89,12.05-11.16.19-6.16-4.6-11.32-11.35-12.07-1.92-.21-3.89-.09-5.84-.09-87.6,0-175.19,0-262.79.01-2.67,0-5.42-.14-7.99.43-8.41,1.88-11.77,11.52-6.59,18.37,3.17,4.2,7.61,4.62,12.41,4.62,44.28-.06,88.57-.03,132.85-.03Zm-94.75-175.15c2.39-1.73,3.91-2.89,5.49-3.96,14.89-10.08,29.88-20.03,44.66-30.28,5.86-4.07,6.75-9.88,3.08-15.2-3.64-5.29-9.23-6.98-14.57-3.45-21.49,14.21-42.94,28.49-64.09,43.19-7.41,5.16-6.95,14.59.49,19.55,21.23,14.15,42.64,28.04,63.96,42.07,4.1,2.7,7.85,1.92,11.41-.88,6.78-5.32,6.01-13.98-2.09-19.4-15.75-10.53-31.7-20.78-48.34-31.65Zm146.73,53.81c1.51-.65,3.65-1.25,5.45-2.39,20.49-13.09,41.01-26.14,61.35-39.47,9.57-6.27,9.58-15.43.2-21.7-20.42-13.65-40.99-27.08-61.43-40.7-3.46-2.3-6.96-3.56-10.96-2.04-3.81,1.46-6.96,3.94-7.56,8.18-.76,5.37,1.88,9.3,6.3,12.21,14.62,9.63,29.12,19.47,43.88,28.88,5.06,3.22,5.77,4.93.14,8.43-14.87,9.23-29.41,19-44.11,28.51-4.72,3.05-6.52,7.33-4.71,12.54,1.69,4.87,5.93,6.76,11.45,7.55Zm-24.04-122.03c-.5-5.62-2.42-9.49-7.18-10.92-4.46-1.34-8.69-.56-11.95,3.21-2.18,2.53-2.55,5.77-3.28,8.79-6.08,25.26-12.04,50.56-18.05,75.84-4.44,18.67-9.01,37.3-13.27,56.01-1.48,6.53,1.66,11.73,7.15,13.27,5.51,1.54,11.49-2.03,13.58-8.15.47-1.38.84-2.8,1.17-4.21,7.8-32.59,15.62-65.18,23.39-97.78,2.93-12.28,5.76-24.58,8.44-36.05Z"/>
  <path class="cls-6" d="m540.62,290.88c-67.21,0-134.42-.08-201.62.13-6.33.02-8.83-1.1-8.62-8.2.56-18.74.13-37.5.21-56.25.06-12.09,6.44-18.59,18.41-18.6,127.35-.04,254.71-.05,382.06,0,12.64,0,19.07,6.77,19.1,19.61.05,18.75-.24,37.51.16,56.25.13,5.94-1.75,7.18-7.35,7.16-67.45-.19-134.9-.12-202.35-.12Zm83.94-53.7c-24.34,0-48.68-.06-73.02.03-8.26.03-13.06,4.47-13.02,11.53.03,6.74,5.31,11.5,13.1,11.8.73.03,1.46,0,2.19,0,47.22,0,94.44.01,141.66-.01,9.16,0,14.75-4.31,14.98-11.36.24-7.32-5.55-11.98-15.06-12-23.61-.03-47.22-.01-70.83,0Zm-246.24,23.26c2.42,0,4.88.29,7.24-.05,7.4-1.07,11.86-7.98,9.66-14.89-1.87-5.86-6.27-8.54-12.17-8.26-7.6.36-16.48-2.78-21.21,6.7-.52,1.04-.59,2.34-.69,3.53-.74,8.96,4.7,13.09,17.17,12.97Zm79.88-23.24v-.03c-1.21,0-2.42-.03-3.63,0-8.4.22-12.87,4.19-12.88,11.43-.02,7.14,4.71,11.67,12.6,11.95,3.14.11,6.31.18,9.44-.03,6.87-.45,11.56-5.19,11.65-11.52.08-6.33-4.57-11.21-11.37-11.78-1.92-.16-3.87-.02-5.81-.02Zm-39.86-.02c-1.46,0-2.93-.06-4.38,0-7.52.36-11.74,4.25-11.95,10.98-.22,7.02,4.21,11.85,11.54,12.33,3.15.21,6.33.15,9.5.03,7.38-.28,12.52-5,12.66-11.47.14-6.72-5.17-11.6-12.98-11.88-1.46-.05-2.92,0-4.38,0Z"/>
  <path class="cls-4" d="m539.64,526.98c43.56,0,87.12,0,130.69.01,2.43,0,4.89-.09,7.28.28,6.55,1.02,10.88,5.98,10.65,11.88-.23,6.08-4.57,10.48-11.3,11.24-2.41.27-4.86.22-7.29.22-86.64,0-173.28.01-259.91-.01-3.15,0-6.39.05-9.44-.6-6.09-1.29-9.09-5.67-9.01-11.61.08-5.66,3.08-9.73,8.94-10.84,2.6-.5,5.32-.53,7.98-.53,43.81-.03,87.61-.02,131.42-.02Z"/>
  <path class="cls-4" d="m538.95,598.37c-44.28,0-88.57-.02-132.85.03-4.79,0-9.24-.42-12.41-4.62-5.18-6.85-1.82-16.49,6.59-18.37,2.57-.57,5.32-.43,7.99-.43,87.6-.02,175.19-.02,262.79-.01,1.95,0,3.91-.13,5.84.09,6.75.75,11.54,5.91,11.35,12.07-.19,6.27-5.05,11.1-12.05,11.16-21.17.17-42.34.08-63.51.08-24.58,0-49.15,0-73.73,0Z"/>
  <path class="cls-4" d="m444.2,423.22c16.64,10.87,32.59,21.12,48.34,31.65,8.1,5.42,8.86,14.07,2.09,19.4-3.57,2.8-7.31,3.58-11.41.88-21.31-14.03-42.73-27.92-63.96-42.07-7.44-4.96-7.9-14.4-.49-19.55,21.15-14.71,42.6-28.98,64.09-43.19,5.34-3.53,10.92-1.84,14.57,3.45,3.66,5.32,2.78,11.13-3.08,15.2-14.78,10.25-29.77,20.2-44.66,30.28-1.58,1.07-3.1,2.23-5.49,3.96Z"/>
  <path class="cls-4" d="m590.93,477.03c-5.52-.79-9.76-2.68-11.45-7.55-1.81-5.21-.01-9.49,4.71-12.54,14.7-9.51,29.24-19.28,44.11-28.51,5.64-3.5,4.92-5.21-.14-8.43-14.77-9.41-29.26-19.24-43.88-28.88-4.42-2.91-7.06-6.84-6.3-12.21.6-4.24,3.75-6.72,7.56-8.18,4-1.53,7.5-.27,10.96,2.04,20.44,13.61,41.01,27.04,61.43,40.7,9.38,6.27,9.36,15.43-.2,21.7-20.34,13.33-40.86,26.38-61.35,39.47-1.79,1.15-3.94,1.74-5.45,2.39Z"/>
  <path class="cls-4" d="m566.9,355c-2.68,11.47-5.52,23.77-8.44,36.05-7.77,32.6-15.58,65.19-23.39,97.78-.34,1.42-.7,2.84-1.17,4.21-2.09,6.12-8.07,9.7-13.58,8.15-5.5-1.54-8.64-6.73-7.15-13.27,4.25-18.71,8.83-37.34,13.27-56.01,6.01-25.28,11.97-50.57,18.05-75.84.73-3.02,1.1-6.27,3.28-8.79,3.26-3.77,7.49-4.55,11.95-3.21,4.76,1.43,6.69,5.3,7.18,10.92Z"/>
  <path class="cls-4" d="m624.56,237.18c23.61,0,47.22-.02,70.83,0,9.51.01,15.3,4.68,15.06,12-.23,7.05-5.82,11.35-14.98,11.36-47.22.02-94.44.01-141.66.01-.73,0-1.46.02-2.19,0-7.78-.29-13.06-5.06-13.1-11.8-.04-7.07,4.76-11.5,13.02-11.53,24.34-.09,48.68-.03,73.02-.03Z"/>
  <path class="cls-4" d="m378.33,260.44c-12.47.12-17.91-4.01-17.17-12.97.1-1.19.18-2.5.69-3.53,4.73-9.48,13.6-6.33,21.21-6.7,5.9-.28,10.3,2.4,12.17,8.26,2.21,6.91-2.25,13.82-9.66,14.89-2.37.34-4.83.05-7.24.05Z"/>
  <path class="cls-4" d="m458.21,237.2c1.94,0,3.89-.14,5.81.02,6.79.57,11.45,5.45,11.37,11.78-.08,6.33-4.77,11.06-11.65,11.52-3.13.21-6.3.14-9.44.03-7.9-.28-12.62-4.81-12.6-11.95.02-7.24,4.49-11.21,12.88-11.43,1.21-.03,2.42,0,3.63,0v.03Z"/>
  <path class="cls-4" d="m418.35,237.18c1.46,0,2.92-.05,4.38,0,7.8.28,13.12,5.16,12.98,11.88-.14,6.47-5.28,11.18-12.66,11.47-3.16.12-6.34.18-9.5-.03-7.33-.49-11.76-5.32-11.54-12.33.22-6.74,4.43-10.63,11.95-10.98,1.46-.07,2.92,0,4.38-.01Z"/>
</svg>