<?xml version="1.0" encoding="UTF-8"?>
<svg id="Capa_1" data-name="Capa 1" xmlns="http://www.w3.org/2000/svg" viewBox="0 0 1080 1080">
  <defs>
    <style>
      .cls-1 {
        fill: #fff;
      }

      .cls-1, .cls-2 {
        stroke-width: 0px;
      }

      .cls-2 {
        fill: #ffa942;
      }
    </style>
  </defs>
  <circle class="cls-2" cx="540" cy="540" r="501.5"/>
  <path class="cls-1" d="m540,113c57.66,0,113.58,11.29,166.2,33.54,50.84,21.5,96.51,52.3,135.74,91.52,39.23,39.23,70.02,84.89,91.52,135.74,22.26,52.62,33.54,108.54,33.54,166.2s-11.28,113.58-33.54,166.2c-21.5,50.84-52.3,96.51-91.52,135.74-39.23,39.23-84.9,70.02-135.74,91.52-52.62,22.26-108.54,33.54-166.2,33.54s-113.58-11.28-166.2-33.54c-50.84-21.5-96.51-52.3-135.74-91.52-39.23-39.23-70.02-84.89-91.52-135.74-22.26-52.62-33.54-108.54-33.54-166.2s11.28-113.58,33.54-166.2c21.5-50.84,52.3-96.51,91.52-135.74,39.23-39.23,84.9-70.02,135.74-91.52,52.62-22.26,108.54-33.54,166.2-33.54m0-35c-255.16,0-462,206.84-462,462s206.84,462,462,462,462-206.84,462-462S795.16,78,540,78h0Z"/>
  <g>
    <path class="cls-1" d="m375.18,449.1v40.13h-42.86v121.3h-50.62v-121.3h-42.41v-40.13h135.89Z"/>
    <path class="cls-1" d="m470.03,610.53l-30.32-57.91h-.23v57.91h-50.62v-161.42h75.24c13.07,0,24.24,2.32,33.52,6.95,9.27,4.64,16.22,10.94,20.86,18.92,4.63,7.98,6.95,16.99,6.95,27.02,0,10.79-3,20.37-9.01,28.73-6.01,8.36-14.63,14.36-25.88,18.01l35.11,61.79h-55.63Zm-30.55-91.66h20.06c4.86,0,8.51-1.1,10.94-3.31,2.43-2.2,3.65-5.66,3.65-10.37,0-4.25-1.25-7.6-3.76-10.03-2.51-2.43-6.12-3.65-10.83-3.65h-20.06v27.36Z"/>
    <path class="cls-1" d="m592.24,572.22h48.79v38.3h-99.41v-161.42h50.62v123.12Z"/>
    <path class="cls-1" d="m749.21,454.57c10.11-9.58,24.43-14.36,42.98-14.36,12.01,0,22.27,2.05,30.78,6.16,8.51,4.1,14.93,9.65,19.27,16.64,4.33,6.99,6.5,14.9,6.5,23.71,0,10.64-2.51,18.96-7.52,24.97-5.02,6.01-10.64,10.07-16.87,12.2v.91c18.24,6.84,27.36,19.53,27.36,38.08,0,9.73-2.28,18.32-6.84,25.76-4.56,7.45-11.06,13.22-19.49,17.33s-18.43,6.16-29.98,6.16c-19.76,0-35.27-4.71-46.51-14.14-11.25-9.42-17.03-24.17-17.33-44.23h49.25c-.31,5.47.49,9.62,2.39,12.43,1.9,2.81,5.2,4.22,9.92,4.22,2.74,0,5.02-1.03,6.84-3.08,1.82-2.05,2.74-4.75,2.74-8.09,0-4.25-1.41-7.48-4.22-9.69-2.81-2.2-7.56-3.31-14.25-3.31h-8.44v-40.81h8.21c10.33.61,15.5-3.5,15.5-12.31,0-3.8-.8-6.61-2.39-8.44-1.6-1.82-3.61-2.74-6.04-2.74-5.62,0-8.44,4.71-8.44,14.14h-49.25c.46-18.09,5.74-31.92,15.85-41.5Z"/>
  </g>
</svg>