<?xml version="1.0" encoding="UTF-8"?>
<svg id="Capa_1" data-name="Capa 1" xmlns="http://www.w3.org/2000/svg" viewBox="0 0 1080 1080">
  <defs>
    <style>
      .cls-1 {
        fill: #fff;
      }

      .cls-1, .cls-2 {
        stroke-width: 0px;
      }

      .cls-2 {
        fill: #ab1a43;
      }
    </style>
  </defs>
  <circle class="cls-2" cx="540" cy="540" r="501.5"/>
  <path class="cls-1" d="m540,113c57.66,0,113.58,11.29,166.2,33.54,50.84,21.5,96.51,52.3,135.74,91.52s70.02,84.89,91.52,135.74c22.26,52.62,33.54,108.54,33.54,166.2s-11.29,113.58-33.54,166.2c-21.5,50.84-52.3,96.51-91.52,135.74-39.23,39.23-84.9,70.02-135.74,91.52-52.62,22.26-108.54,33.54-166.2,33.54s-113.58-11.28-166.2-33.54c-50.84-21.5-96.51-52.3-135.74-91.52-39.23-39.23-70.02-84.89-91.52-135.74-22.26-52.62-33.54-108.54-33.54-166.2s11.28-113.58,33.54-166.2c21.5-50.84,52.3-96.51,91.52-135.74,39.23-39.23,84.9-70.02,135.74-91.52,52.62-22.26,108.54-33.54,166.2-33.54m0-35c-255.16,0-462,206.84-462,462s206.84,462,462,462,462-206.84,462-462S795.16,78,540,78h0Z"/>
  <g>
    <path class="cls-1" d="m365.04,449.1v40.13h-42.86v121.3h-50.62v-121.3h-42.41v-40.13h135.89Z"/>
    <path class="cls-1" d="m459.88,610.53l-30.32-57.91h-.23v57.91h-50.62v-161.42h75.24c13.07,0,24.24,2.32,33.52,6.95,9.27,4.64,16.22,10.94,20.86,18.92,4.63,7.98,6.95,16.99,6.95,27.02,0,10.79-3,20.37-9.01,28.73-6.01,8.36-14.63,14.36-25.88,18.01l35.11,61.79h-55.63Zm-30.55-91.66h20.06c4.86,0,8.51-1.1,10.94-3.31,2.43-2.2,3.65-5.66,3.65-10.37,0-4.25-1.25-7.6-3.76-10.03-2.51-2.43-6.12-3.65-10.83-3.65h-20.06v27.36Z"/>
    <path class="cls-1" d="m582.09,572.22h48.79v38.3h-99.41v-161.42h50.62v123.12Z"/>
    <path class="cls-1" d="m724.82,585.45v-42.18l67.94-96.9h54.49v95.3h16.42v43.78h-16.42v25.08h-51.07v-25.08h-71.36Zm75.47-81.4l-24.62,37.62h24.62v-37.62Z"/>
  </g>
</svg>