<?xml version="1.0" encoding="UTF-8"?>
<svg id="Capa_1" data-name="Capa 1" xmlns="http://www.w3.org/2000/svg" viewBox="0 0 1080 1080">
  <defs>
    <style>
      .cls-1 {
        fill: #d44b79;
      }

      .cls-1, .cls-2 {
        stroke-width: 0px;
      }

      .cls-2 {
        fill: #fff;
      }
    </style>
  </defs>
  <circle class="cls-1" cx="540" cy="540" r="501.5"/>
  <path class="cls-2" d="m540,113c57.66,0,113.58,11.29,166.2,33.54,50.84,21.5,96.51,52.3,135.74,91.52,39.23,39.23,70.02,84.9,91.52,135.74,22.26,52.62,33.54,108.54,33.54,166.2s-11.28,113.58-33.54,166.2c-21.5,50.84-52.3,96.51-91.52,135.74-39.23,39.23-84.89,70.02-135.74,91.52-52.62,22.26-108.54,33.54-166.2,33.54s-113.58-11.28-166.2-33.54c-50.84-21.5-96.51-52.3-135.74-91.52s-70.02-84.9-91.52-135.74c-22.26-52.62-33.54-108.54-33.54-166.2s11.29-113.58,33.54-166.2c21.5-50.84,52.3-96.51,91.52-135.74s84.89-70.02,135.74-91.52c52.62-22.26,108.54-33.54,166.2-33.54m0-35c-255.16,0-462,206.84-462,462s206.84,462,462,462,462-206.84,462-462S795.16,78,540,78h0Z"/>
  <g>
    <path class="cls-2" d="m370.05,449.1v40.13h-42.86v121.3h-50.62v-121.3h-42.41v-40.13h135.89Z"/>
    <path class="cls-2" d="m464.9,610.53l-30.32-57.91h-.23v57.91h-50.62v-161.42h75.24c13.07,0,24.24,2.32,33.52,6.95,9.27,4.64,16.22,10.94,20.86,18.92,4.63,7.98,6.95,16.99,6.95,27.02,0,10.79-3,20.37-9.01,28.73-6.01,8.36-14.63,14.36-25.88,18.01l35.11,61.79h-55.63Zm-30.55-91.66h20.06c4.86,0,8.51-1.1,10.94-3.31,2.43-2.2,3.65-5.66,3.65-10.37,0-4.25-1.25-7.6-3.76-10.03-2.51-2.43-6.12-3.65-10.83-3.65h-20.06v27.36Z"/>
    <path class="cls-2" d="m587.11,572.22h48.79v38.3h-99.41v-161.42h50.62v123.12Z"/>
    <path class="cls-2" d="m851.13,488.32h-66.12v19.15c2.89-2.58,6.65-4.63,11.29-6.16,4.63-1.52,9.84-2.28,15.62-2.28,10.33,0,19.07,2.43,26.22,7.3,7.14,4.87,12.46,11.36,15.96,19.49,3.49,8.13,5.24,17.14,5.24,27.02,0,18.24-5.13,32.42-15.39,42.52-10.26,10.11-24.36,15.16-42.29,15.16-13.07,0-24.36-2.28-33.86-6.84-9.5-4.56-16.72-10.87-21.66-18.92-4.94-8.05-7.26-17.25-6.95-27.59h49.25c0,2.43.83,4.71,2.51,6.84,1.67,2.13,4.41,3.19,8.21,3.19s6.61-1.37,8.44-4.1c1.82-2.74,2.74-6.46,2.74-11.17,0-4.41-1.03-7.75-3.08-10.03-2.05-2.28-4.98-3.42-8.78-3.42-3.19,0-5.62.76-7.3,2.28-1.67,1.52-2.51,3.27-2.51,5.24h-49.25v-102.14h111.72v44.46Z"/>
  </g>
</svg>