<?xml version="1.0" encoding="UTF-8"?>
<svg id="Capa_1" data-name="Capa 1" xmlns="http://www.w3.org/2000/svg" viewBox="0 0 1080 1080">
  <defs>
    <style>
      .cls-1 {
        fill: #fff;
      }

      .cls-1, .cls-2 {
        stroke-width: 0px;
      }

      .cls-2 {
        fill: #36d4d7;
      }
    </style>
  </defs>
  <circle class="cls-2" cx="540" cy="540" r="501.5"/>
  <path class="cls-1" d="m540,113c57.66,0,113.58,11.29,166.2,33.54,50.84,21.5,96.51,52.3,135.74,91.52s70.02,84.9,91.52,135.74c22.26,52.62,33.54,108.54,33.54,166.2s-11.28,113.58-33.54,166.2c-21.5,50.84-52.3,96.51-91.52,135.74s-84.9,70.02-135.74,91.52c-52.62,22.26-108.54,33.54-166.2,33.54s-113.58-11.28-166.2-33.54c-50.84-21.5-96.51-52.3-135.74-91.52s-70.02-84.9-91.52-135.74c-22.26-52.62-33.54-108.54-33.54-166.2s11.29-113.58,33.54-166.2c21.5-50.84,52.3-96.51,91.52-135.74s84.9-70.02,135.74-91.52c52.62-22.26,108.54-33.54,166.2-33.54m0-35c-255.16,0-462,206.84-462,462s206.84,462,462,462,462-206.84,462-462S795.16,78,540,78h0Z"/>
  <g>
    <path class="cls-1" d="m373.13,449.1v40.13h-42.86v121.3h-50.62v-121.3h-42.41v-40.13h135.89Z"/>
    <path class="cls-1" d="m467.98,610.53l-30.32-57.91h-.23v57.91h-50.62v-161.42h75.24c13.07,0,24.24,2.32,33.52,6.95,9.27,4.64,16.22,10.94,20.86,18.92,4.63,7.98,6.95,16.99,6.95,27.02,0,10.79-3,20.37-9.01,28.73-6.01,8.36-14.63,14.36-25.88,18.01l35.11,61.79h-55.63Zm-30.55-91.66h20.06c4.86,0,8.51-1.1,10.94-3.31,2.43-2.2,3.65-5.66,3.65-10.37,0-4.25-1.25-7.6-3.76-10.03-2.51-2.43-6.12-3.65-10.83-3.65h-20.06v27.36Z"/>
    <path class="cls-1" d="m590.19,572.22h48.79v38.3h-99.41v-161.42h50.62v123.12Z"/>
    <path class="cls-1" d="m800.29,484.44c-1.75-2.13-4.45-3.19-8.09-3.19-5.78,0-9.62,2.93-11.51,8.78-1.9,5.85-2.85,14.93-2.85,27.25,2.74-4.25,6.69-7.6,11.86-10.03,5.17-2.43,11.02-3.65,17.56-3.65,14.59,0,26.26,4.49,35,13.45,8.74,8.97,13.11,21.97,13.11,38.99,0,11.4-2.39,21.32-7.18,29.75-4.79,8.44-11.59,14.93-20.41,19.49-8.82,4.56-19.23,6.84-31.24,6.84-23.86,0-40.43-7.33-49.7-22-9.27-14.67-13.91-35.23-13.91-61.67,0-20.67,2.13-37.39,6.38-50.16,4.25-12.77,10.98-22.19,20.18-28.27,9.19-6.08,21.17-9.12,35.91-9.12,18.09,0,31.73,5.17,40.93,15.5,9.19,10.34,14.25,23.03,15.16,38.08h-47.2c-.91-4.56-2.24-7.9-3.99-10.03Zm-15.39,61.33c-2.43,2.28-3.65,5.47-3.65,9.58,0,4.56,1.18,7.94,3.53,10.15,2.35,2.21,5.66,3.31,9.92,3.31s7.56-1.1,9.92-3.31c2.35-2.2,3.53-5.59,3.53-10.15,0-4.1-1.22-7.3-3.65-9.58-2.43-2.28-5.7-3.42-9.8-3.42s-7.37,1.14-9.8,3.42Z"/>
  </g>
</svg>