<?xml version="1.0" encoding="UTF-8"?>
<svg id="Capa_1" data-name="Capa 1" xmlns="http://www.w3.org/2000/svg" viewBox="0 0 1080 1080">
  <defs>
    <style>
      .cls-1 {
        fill: #477fae;
      }

      .cls-1, .cls-2 {
        stroke-width: 0px;
      }

      .cls-2 {
        fill: #fff;
      }
    </style>
  </defs>
  <circle class="cls-1" cx="540" cy="540" r="501.5"/>
  <path class="cls-2" d="m540,113c57.66,0,113.58,11.29,166.2,33.54,50.84,21.5,96.51,52.3,135.74,91.52s70.02,84.9,91.52,135.74c22.26,52.62,33.54,108.54,33.54,166.2s-11.29,113.58-33.54,166.2c-21.5,50.84-52.3,96.51-91.52,135.74s-84.9,70.02-135.74,91.52c-52.62,22.26-108.54,33.54-166.2,33.54s-113.58-11.28-166.2-33.54c-50.84-21.5-96.51-52.3-135.74-91.52-39.23-39.23-70.02-84.9-91.52-135.74-22.26-52.62-33.54-108.54-33.54-166.2s11.28-113.58,33.54-166.2c21.5-50.84,52.3-96.51,91.52-135.74,39.23-39.23,84.9-70.02,135.74-91.52,52.62-22.26,108.54-33.54,166.2-33.54m0-35c-255.16,0-462,206.84-462,462s206.84,462,462,462,462-206.84,462-462S795.16,78,540,78h0Z"/>
  <g>
    <path class="cls-2" d="m370.39,449.1v40.13h-42.86v121.3h-50.62v-121.3h-42.41v-40.13h135.89Z"/>
    <path class="cls-2" d="m465.24,610.53l-30.32-57.91h-.23v57.91h-50.62v-161.42h75.24c13.07,0,24.24,2.32,33.52,6.95,9.27,4.64,16.22,10.94,20.86,18.92,4.63,7.98,6.95,16.99,6.95,27.02,0,10.79-3,20.37-9.01,28.73-6.01,8.36-14.63,14.36-25.88,18.01l35.11,61.79h-55.63Zm-30.55-91.66h20.06c4.86,0,8.51-1.1,10.94-3.31,2.43-2.2,3.65-5.66,3.65-10.37,0-4.25-1.25-7.6-3.76-10.03-2.51-2.43-6.12-3.65-10.83-3.65h-20.06v27.36Z"/>
    <path class="cls-2" d="m587.45,572.22h48.79v38.3h-99.41v-161.42h50.62v123.12Z"/>
    <path class="cls-2" d="m738.04,505.08c-3.42-5.7-5.13-12.5-5.13-20.41s2.2-15.65,6.61-22.34c4.41-6.69,11.13-12.04,20.18-16.07,9.04-4.03,20.18-6.04,33.4-6.04s24.36,2.02,33.4,6.04c9.04,4.03,15.77,9.39,20.18,16.07,4.41,6.69,6.61,14.14,6.61,22.34s-1.71,14.71-5.13,20.41c-3.42,5.7-8.17,10.3-14.25,13.79,15.35,8.97,23.03,22.42,23.03,40.36,0,11.55-2.89,21.36-8.66,29.41-5.78,8.06-13.53,14.14-23.26,18.24-9.73,4.1-20.37,6.16-31.92,6.16s-22.19-2.05-31.92-6.16c-9.73-4.1-17.48-10.18-23.26-18.24-5.78-8.05-8.66-17.86-8.66-29.41,0-17.93,7.67-31.39,23.03-40.36-6.08-3.5-10.83-8.09-14.25-13.79Zm44.23,39.9c-2.66,2.96-3.99,6.73-3.99,11.29s1.29,8.29,3.88,11.17c2.58,2.89,6.23,4.33,10.94,4.33s8.36-1.44,10.94-4.33c2.58-2.89,3.88-6.61,3.88-11.17s-1.33-8.32-3.99-11.29c-2.66-2.96-6.27-4.45-10.83-4.45s-8.17,1.48-10.83,4.45Zm18.35-62.02c-1.98-2.51-4.48-3.76-7.52-3.76s-5.55,1.25-7.52,3.76c-1.98,2.51-2.96,5.89-2.96,10.15s.99,7.75,2.96,10.03c1.97,2.28,4.48,3.42,7.52,3.42s5.55-1.14,7.52-3.42c1.97-2.28,2.96-5.62,2.96-10.03s-.99-7.64-2.96-10.15Z"/>
  </g>
</svg>