<?xml version="1.0" encoding="UTF-8"?>
<svg id="Capa_1" data-name="Capa 1" xmlns="http://www.w3.org/2000/svg" viewBox="0 0 1080 1080">
  <defs>
    <style>
      .cls-1 {
        fill: #02457a;
      }

      .cls-1, .cls-2 {
        stroke-width: 0px;
      }

      .cls-2 {
        fill: #fff;
      }
    </style>
  </defs>
  <circle class="cls-1" cx="540" cy="540" r="501.5"/>
  <path class="cls-2" d="m540,113c57.66,0,113.58,11.28,166.2,33.54,50.84,21.5,96.51,52.3,135.74,91.52,39.23,39.23,70.02,84.9,91.52,135.74,22.26,52.62,33.54,108.54,33.54,166.2s-11.28,113.58-33.54,166.2c-21.5,50.84-52.3,96.51-91.52,135.74-39.23,39.23-84.89,70.02-135.74,91.52-52.62,22.26-108.54,33.54-166.2,33.54s-113.58-11.28-166.2-33.54c-50.84-21.5-96.51-52.3-135.74-91.52-39.23-39.23-70.02-84.9-91.52-135.74-22.26-52.62-33.54-108.54-33.54-166.2s11.29-113.58,33.54-166.2c21.5-50.84,52.3-96.51,91.52-135.74,39.23-39.23,84.89-70.02,135.74-91.52,52.62-22.26,108.54-33.54,166.2-33.54m0-35c-255.16,0-462,206.84-462,462s206.84,462,462,462,462-206.84,462-462S795.16,78,540,78h0Z"/>
  <g>
    <path class="cls-2" d="m377.24,449.1v40.13h-42.86v121.3h-50.62v-121.3h-42.41v-40.13h135.89Z"/>
    <path class="cls-2" d="m472.08,610.53l-30.32-57.91h-.23v57.91h-50.62v-161.42h75.24c13.07,0,24.24,2.32,33.52,6.95,9.27,4.64,16.22,10.94,20.86,18.92,4.63,7.98,6.95,16.99,6.95,27.02,0,10.79-3,20.37-9.01,28.73-6.01,8.36-14.63,14.36-25.88,18.01l35.11,61.79h-55.63Zm-30.55-91.66h20.06c4.86,0,8.51-1.1,10.94-3.31,2.43-2.2,3.65-5.66,3.65-10.37,0-4.25-1.25-7.6-3.76-10.03-2.51-2.43-6.12-3.65-10.83-3.65h-20.06v27.36Z"/>
    <path class="cls-2" d="m594.29,572.22h48.79v38.3h-99.41v-161.42h50.62v123.12Z"/>
    <path class="cls-2" d="m787.29,568.46c2.05,2.21,4.9,3.31,8.55,3.31,5.62,0,9.31-2.85,11.06-8.55,1.75-5.7,2.62-14.86,2.62-27.47-2.74,4.26-6.69,7.6-11.86,10.03-5.17,2.43-11.02,3.65-17.56,3.65-14.44,0-26.07-4.56-34.88-13.68-8.82-9.12-13.22-22.27-13.22-39.44,0-11.4,2.39-21.32,7.18-29.75,4.79-8.44,11.63-14.93,20.52-19.49,8.89-4.56,19.27-6.84,31.12-6.84,24.01,0,40.7,7.07,50.05,21.2,9.35,14.14,14.02,34.28,14.02,60.42,0,30.1-4.6,52.67-13.79,67.72-9.2,15.05-24.66,22.57-46.4,22.57-12.01,0-22.34-2.51-31.01-7.53-8.66-5.02-15.32-11.59-19.95-19.72-4.64-8.13-7.26-16.91-7.87-26.33h47.2c.76,4.41,2.17,7.72,4.22,9.92Zm15.16-61.22c2.43-2.28,3.65-5.47,3.65-9.58,0-4.56-1.18-7.94-3.53-10.15-2.36-2.2-5.66-3.31-9.92-3.31s-7.56,1.1-9.92,3.31c-2.36,2.21-3.53,5.59-3.53,10.15,0,4.1,1.21,7.3,3.65,9.58,2.43,2.28,5.7,3.42,9.8,3.42s7.37-1.14,9.8-3.42Z"/>
  </g>
</svg>